<?xml version="1.0" encoding="UTF-8" standalone="no"?>
<svg
   width="3482"
   height="1667"
   xml:space="preserve"
   overflow="hidden"
   version="1.1"
   id="svg344"
   sodipodi:docname="logo 2.svg"
   inkscape:version="1.3.2 (091e20e, 2023-11-25, custom)"
   xmlns:inkscape="http://www.inkscape.org/namespaces/inkscape"
   xmlns:sodipodi="http://sodipodi.sourceforge.net/DTD/sodipodi-0.dtd"
   xmlns="http://www.w3.org/2000/svg"
   xmlns:svg="http://www.w3.org/2000/svg"><sodipodi:namedview
     id="namedview344"
     pagecolor="#505050"
     bordercolor="#ffffff"
     borderopacity="1"
     inkscape:showpageshadow="0"
     inkscape:pageopacity="0"
     inkscape:pagecheckerboard="1"
     inkscape:deskcolor="#505050"
     inkscape:zoom="0.26521581"
     inkscape:cx="1314.0242"
     inkscape:cy="1072.7113"
     inkscape:window-width="1920"
     inkscape:window-height="974"
     inkscape:window-x="-11"
     inkscape:window-y="-11"
     inkscape:window-maximized="1"
     inkscape:current-layer="g344" /><defs
     id="defs336"><inkscape:path-effect
       effect="simplify"
       id="path-effect345"
       is_visible="true"
       lpeversion="1.3"
       threshold="0.01"
       steps="5.8011527"
       smooth_angles="54.985591"
       helper_size="10"
       simplify_individual_paths="false"
       simplify_just_coalesce="false" /><inkscape:path-effect
       effect="simplify"
       id="path-effect344"
       is_visible="true"
       lpeversion="1.3"
       threshold="5.7731124"
       steps="9.7550432"
       smooth_angles="40"
       helper_size="4"
       simplify_individual_paths="false"
       simplify_just_coalesce="false" /><linearGradient
       x1="840"
       y1="785"
       x2="840"
       y2="1808"
       gradientUnits="userSpaceOnUse"
       spreadMethod="reflect"
       id="fill0"><stop
         offset="0"
         stop-color="#0EE4F4"
         id="stop1" /><stop
         offset="0.00869565"
         stop-color="#0EE3F4"
         id="stop2" /><stop
         offset="0.0173913"
         stop-color="#0FE3F4"
         id="stop3" /><stop
         offset="0.026087"
         stop-color="#0FE3F4"
         id="stop4" /><stop
         offset="0.0347826"
         stop-color="#10E3F4"
         id="stop5" /><stop
         offset="0.0434783"
         stop-color="#11E3F4"
         id="stop6" /><stop
         offset="0.0521739"
         stop-color="#11E3F4"
         id="stop7" /><stop
         offset="0.0608696"
         stop-color="#12E3F4"
         id="stop8" /><stop
         offset="0.0695652"
         stop-color="#12E3F4"
         id="stop9" /><stop
         offset="0.0782609"
         stop-color="#13E3F4"
         id="stop10" /><stop
         offset="0.0869565"
         stop-color="#14E2F4"
         id="stop11" /><stop
         offset="0.0956522"
         stop-color="#14E2F4"
         id="stop12" /><stop
         offset="0.104348"
         stop-color="#15E2F4"
         id="stop13" /><stop
         offset="0.113043"
         stop-color="#15E2F4"
         id="stop14" /><stop
         offset="0.121739"
         stop-color="#16E1F4"
         id="stop15" /><stop
         offset="0.130435"
         stop-color="#16E1F4"
         id="stop16" /><stop
         offset="0.13913"
         stop-color="#17E1F4"
         id="stop17" /><stop
         offset="0.147826"
         stop-color="#18E0F5"
         id="stop18" /><stop
         offset="0.156522"
         stop-color="#18E0F5"
         id="stop19" /><stop
         offset="0.165217"
         stop-color="#19E0F5"
         id="stop20" /><stop
         offset="0.173913"
         stop-color="#19DFF5"
         id="stop21" /><stop
         offset="0.182609"
         stop-color="#1ADFF5"
         id="stop22" /><stop
         offset="0.191304"
         stop-color="#1ADEF5"
         id="stop23" /><stop
         offset="0.2"
         stop-color="#1BDEF5"
         id="stop24" /><stop
         offset="0.208696"
         stop-color="#1BDDF5"
         id="stop25" /><stop
         offset="0.217391"
         stop-color="#1CDDF5"
         id="stop26" /><stop
         offset="0.226087"
         stop-color="#1CDCF5"
         id="stop27" /><stop
         offset="0.234783"
         stop-color="#1DDCF5"
         id="stop28" /><stop
         offset="0.243478"
         stop-color="#1DDBF5"
         id="stop29" /><stop
         offset="0.252174"
         stop-color="#1EDBF5"
         id="stop30" /><stop
         offset="0.26087"
         stop-color="#1EDAF5"
         id="stop31" /><stop
         offset="0.269565"
         stop-color="#1FDAF5"
         id="stop32" /><stop
         offset="0.278261"
         stop-color="#1FD9F5"
         id="stop33" /><stop
         offset="0.286957"
         stop-color="#20D8F5"
         id="stop34" /><stop
         offset="0.295652"
         stop-color="#20D8F5"
         id="stop35" /><stop
         offset="0.304348"
         stop-color="#21D7F5"
         id="stop36" /><stop
         offset="0.313043"
         stop-color="#21D6F6"
         id="stop37" /><stop
         offset="0.321739"
         stop-color="#22D6F6"
         id="stop38" /><stop
         offset="0.330435"
         stop-color="#22D5F6"
         id="stop39" /><stop
         offset="0.33913"
         stop-color="#23D4F6"
         id="stop40" /><stop
         offset="0.347826"
         stop-color="#23D3F6"
         id="stop41" /><stop
         offset="0.356522"
         stop-color="#23D3F6"
         id="stop42" /><stop
         offset="0.365217"
         stop-color="#24D2F6"
         id="stop43" /><stop
         offset="0.373913"
         stop-color="#24D1F6"
         id="stop44" /><stop
         offset="0.382609"
         stop-color="#25D0F6"
         id="stop45" /><stop
         offset="0.391304"
         stop-color="#25D0F6"
         id="stop46" /><stop
         offset="0.4"
         stop-color="#26CFF6"
         id="stop47" /><stop
         offset="0.408696"
         stop-color="#26CEF6"
         id="stop48" /><stop
         offset="0.417391"
         stop-color="#26CDF6"
         id="stop49" /><stop
         offset="0.426087"
         stop-color="#27CCF6"
         id="stop50" /><stop
         offset="0.434783"
         stop-color="#27CBF6"
         id="stop51" /><stop
         offset="0.443478"
         stop-color="#28CAF6"
         id="stop52" /><stop
         offset="0.452174"
         stop-color="#28C9F6"
         id="stop53" /><stop
         offset="0.46087"
         stop-color="#28C8F6"
         id="stop54" /><stop
         offset="0.469565"
         stop-color="#29C7F6"
         id="stop55" /><stop
         offset="0.478261"
         stop-color="#29C6F6"
         id="stop56" /><stop
         offset="0.486957"
         stop-color="#29C5F6"
         id="stop57" /><stop
         offset="0.495652"
         stop-color="#2AC4F6"
         id="stop58" /><stop
         offset="0.504348"
         stop-color="#2AC3F6"
         id="stop59" /><stop
         offset="0.513043"
         stop-color="#2AC2F6"
         id="stop60" /><stop
         offset="0.521739"
         stop-color="#2BC1F6"
         id="stop61" /><stop
         offset="0.530435"
         stop-color="#2BC0F7"
         id="stop62" /><stop
         offset="0.53913"
         stop-color="#2BBFF7"
         id="stop63" /><stop
         offset="0.547826"
         stop-color="#2CBEF7"
         id="stop64" /><stop
         offset="0.556522"
         stop-color="#2CBDF7"
         id="stop65" /><stop
         offset="0.565217"
         stop-color="#2CBCF7"
         id="stop66" /><stop
         offset="0.573913"
         stop-color="#2DBBF7"
         id="stop67" /><stop
         offset="0.582609"
         stop-color="#2DB9F7"
         id="stop68" /><stop
         offset="0.591304"
         stop-color="#2DB8F7"
         id="stop69" /><stop
         offset="0.6"
         stop-color="#2EB7F7"
         id="stop70" /><stop
         offset="0.608696"
         stop-color="#2EB6F7"
         id="stop71" /><stop
         offset="0.617391"
         stop-color="#2EB5F7"
         id="stop72" /><stop
         offset="0.626087"
         stop-color="#2EB3F7"
         id="stop73" /><stop
         offset="0.634783"
         stop-color="#2FB2F7"
         id="stop74" /><stop
         offset="0.643478"
         stop-color="#2FB1F7"
         id="stop75" /><stop
         offset="0.652174"
         stop-color="#2FAFF7"
         id="stop76" /><stop
         offset="0.66087"
         stop-color="#2FAEF7"
         id="stop77" /><stop
         offset="0.669565"
         stop-color="#30ADF7"
         id="stop78" /><stop
         offset="0.678261"
         stop-color="#30ABF7"
         id="stop79" /><stop
         offset="0.686957"
         stop-color="#30AAF7"
         id="stop80" /><stop
         offset="0.695652"
         stop-color="#30A9F7"
         id="stop81" /><stop
         offset="0.704348"
         stop-color="#31A7F7"
         id="stop82" /><stop
         offset="0.713043"
         stop-color="#31A6F7"
         id="stop83" /><stop
         offset="0.721739"
         stop-color="#31A5F7"
         id="stop84" /><stop
         offset="0.730435"
         stop-color="#31A3F7"
         id="stop85" /><stop
         offset="0.73913"
         stop-color="#31A2F7"
         id="stop86" /><stop
         offset="0.747826"
         stop-color="#32A0F7"
         id="stop87" /><stop
         offset="0.756522"
         stop-color="#329FF7"
         id="stop88" /><stop
         offset="0.765217"
         stop-color="#329DF7"
         id="stop89" /><stop
         offset="0.773913"
         stop-color="#329CF7"
         id="stop90" /><stop
         offset="0.782609"
         stop-color="#329AF7"
         id="stop91" /><stop
         offset="0.791304"
         stop-color="#3299F7"
         id="stop92" /><stop
         offset="0.8"
         stop-color="#3397F7"
         id="stop93" /><stop
         offset="0.808696"
         stop-color="#3396F7"
         id="stop94" /><stop
         offset="0.817391"
         stop-color="#3394F7"
         id="stop95" /><stop
         offset="0.826087"
         stop-color="#3392F7"
         id="stop96" /><stop
         offset="0.834783"
         stop-color="#3391F7"
         id="stop97" /><stop
         offset="0.843478"
         stop-color="#338FF7"
         id="stop98" /><stop
         offset="0.852174"
         stop-color="#338EF7"
         id="stop99" /><stop
         offset="0.86087"
         stop-color="#348CF7"
         id="stop100" /><stop
         offset="0.869565"
         stop-color="#348AF7"
         id="stop101" /><stop
         offset="0.878261"
         stop-color="#3489F7"
         id="stop102" /><stop
         offset="0.886957"
         stop-color="#3487F7"
         id="stop103" /><stop
         offset="0.895652"
         stop-color="#3485F7"
         id="stop104" /><stop
         offset="0.904348"
         stop-color="#3483F7"
         id="stop105" /><stop
         offset="0.913043"
         stop-color="#3482F7"
         id="stop106" /><stop
         offset="0.921739"
         stop-color="#3480F7"
         id="stop107" /><stop
         offset="0.930435"
         stop-color="#347EF7"
         id="stop108" /><stop
         offset="0.93913"
         stop-color="#347CF7"
         id="stop109" /><stop
         offset="0.947826"
         stop-color="#347BF7"
         id="stop110" /><stop
         offset="0.956522"
         stop-color="#3479F7"
         id="stop111" /><stop
         offset="0.965217"
         stop-color="#3477F7"
         id="stop112" /><stop
         offset="0.973913"
         stop-color="#3475F7"
         id="stop113" /><stop
         offset="0.982609"
         stop-color="#3473F7"
         id="stop114" /><stop
         offset="0.991304"
         stop-color="#3471F7"
         id="stop115" /><stop
         offset="1"
         stop-color="#3570F8"
         id="stop116" /></linearGradient><linearGradient
       x1="2011.5"
       y1="388"
       x2="2011.5"
       y2="1717"
       gradientUnits="userSpaceOnUse"
       spreadMethod="reflect"
       id="fill1"><stop
         offset="0"
         stop-color="#FC667F"
         id="stop117" /><stop
         offset="0.00970874"
         stop-color="#FB657E"
         id="stop118" /><stop
         offset="0.0194175"
         stop-color="#FB657E"
         id="stop119" /><stop
         offset="0.0291262"
         stop-color="#FB657E"
         id="stop120" /><stop
         offset="0.038835"
         stop-color="#FB657E"
         id="stop121" /><stop
         offset="0.0485437"
         stop-color="#FB657E"
         id="stop122" /><stop
         offset="0.0582524"
         stop-color="#FB657E"
         id="stop123" /><stop
         offset="0.0679612"
         stop-color="#FB657E"
         id="stop124" /><stop
         offset="0.0776699"
         stop-color="#FB657E"
         id="stop125" /><stop
         offset="0.0873786"
         stop-color="#FB657D"
         id="stop126" /><stop
         offset="0.0970874"
         stop-color="#FB647D"
         id="stop127" /><stop
         offset="0.106796"
         stop-color="#FB647D"
         id="stop128" /><stop
         offset="0.116505"
         stop-color="#FB647D"
         id="stop129" /><stop
         offset="0.126214"
         stop-color="#FB647C"
         id="stop130" /><stop
         offset="0.135922"
         stop-color="#FB637C"
         id="stop131" /><stop
         offset="0.145631"
         stop-color="#FB637C"
         id="stop132" /><stop
         offset="0.15534"
         stop-color="#FB637B"
         id="stop133" /><stop
         offset="0.165049"
         stop-color="#FB627B"
         id="stop134" /><stop
         offset="0.174757"
         stop-color="#FB627B"
         id="stop135" /><stop
         offset="0.184466"
         stop-color="#FB627A"
         id="stop136" /><stop
         offset="0.194175"
         stop-color="#FB617A"
         id="stop137" /><stop
         offset="0.203883"
         stop-color="#FA6179"
         id="stop138" /><stop
         offset="0.213592"
         stop-color="#FA6079"
         id="stop139" /><stop
         offset="0.223301"
         stop-color="#FA6078"
         id="stop140" /><stop
         offset="0.23301"
         stop-color="#FA5F78"
         id="stop141" /><stop
         offset="0.242718"
         stop-color="#FA5F77"
         id="stop142" /><stop
         offset="0.252427"
         stop-color="#FA5E77"
         id="stop143" /><stop
         offset="0.262136"
         stop-color="#FA5E76"
         id="stop144" /><stop
         offset="0.271845"
         stop-color="#FA5D75"
         id="stop145" /><stop
         offset="0.281553"
         stop-color="#FA5D75"
         id="stop146" /><stop
         offset="0.291262"
         stop-color="#FA5C74"
         id="stop147" /><stop
         offset="0.300971"
         stop-color="#F95C74"
         id="stop148" /><stop
         offset="0.31068"
         stop-color="#F95B73"
         id="stop149" /><stop
         offset="0.320388"
         stop-color="#F95A72"
         id="stop150" /><stop
         offset="0.330097"
         stop-color="#F95A71"
         id="stop151" /><stop
         offset="0.339806"
         stop-color="#F95971"
         id="stop152" /><stop
         offset="0.349515"
         stop-color="#F95870"
         id="stop153" /><stop
         offset="0.359223"
         stop-color="#F9586F"
         id="stop154" /><stop
         offset="0.368932"
         stop-color="#F8576E"
         id="stop155" /><stop
         offset="0.378641"
         stop-color="#F8566E"
         id="stop156" /><stop
         offset="0.38835"
         stop-color="#F8556D"
         id="stop157" /><stop
         offset="0.398058"
         stop-color="#F8556C"
         id="stop158" /><stop
         offset="0.407767"
         stop-color="#F8546B"
         id="stop159" /><stop
         offset="0.417476"
         stop-color="#F8536A"
         id="stop160" /><stop
         offset="0.427184"
         stop-color="#F75269"
         id="stop161" /><stop
         offset="0.436893"
         stop-color="#F75168"
         id="stop162" /><stop
         offset="0.446602"
         stop-color="#F75168"
         id="stop163" /><stop
         offset="0.456311"
         stop-color="#F75067"
         id="stop164" /><stop
         offset="0.466019"
         stop-color="#F74F66"
         id="stop165" /><stop
         offset="0.475728"
         stop-color="#F74E65"
         id="stop166" /><stop
         offset="0.485437"
         stop-color="#F64D64"
         id="stop167" /><stop
         offset="0.495146"
         stop-color="#F64C63"
         id="stop168" /><stop
         offset="0.504854"
         stop-color="#F64B62"
         id="stop169" /><stop
         offset="0.514563"
         stop-color="#F64A61"
         id="stop170" /><stop
         offset="0.524272"
         stop-color="#F64960"
         id="stop171" /><stop
         offset="0.533981"
         stop-color="#F5485E"
         id="stop172" /><stop
         offset="0.543689"
         stop-color="#F5475D"
         id="stop173" /><stop
         offset="0.553398"
         stop-color="#F5465C"
         id="stop174" /><stop
         offset="0.563107"
         stop-color="#F5455B"
         id="stop175" /><stop
         offset="0.572816"
         stop-color="#F4445A"
         id="stop176" /><stop
         offset="0.582524"
         stop-color="#F44359"
         id="stop177" /><stop
         offset="0.592233"
         stop-color="#F44258"
         id="stop178" /><stop
         offset="0.601942"
         stop-color="#F44156"
         id="stop179" /><stop
         offset="0.61165"
         stop-color="#F44055"
         id="stop180" /><stop
         offset="0.621359"
         stop-color="#F33F54"
         id="stop181" /><stop
         offset="0.631068"
         stop-color="#F33D53"
         id="stop182" /><stop
         offset="0.640777"
         stop-color="#F33C51"
         id="stop183" /><stop
         offset="0.650485"
         stop-color="#F33B50"
         id="stop184" /><stop
         offset="0.660194"
         stop-color="#F23A4F"
         id="stop185" /><stop
         offset="0.669903"
         stop-color="#F2394D"
         id="stop186" /><stop
         offset="0.679612"
         stop-color="#F2374C"
         id="stop187" /><stop
         offset="0.68932"
         stop-color="#F2364B"
         id="stop188" /><stop
         offset="0.699029"
         stop-color="#F13549"
         id="stop189" /><stop
         offset="0.708738"
         stop-color="#F13448"
         id="stop190" /><stop
         offset="0.718447"
         stop-color="#F13247"
         id="stop191" /><stop
         offset="0.728155"
         stop-color="#F03145"
         id="stop192" /><stop
         offset="0.737864"
         stop-color="#F03044"
         id="stop193" /><stop
         offset="0.747573"
         stop-color="#F02E42"
         id="stop194" /><stop
         offset="0.757282"
         stop-color="#F02D41"
         id="stop195" /><stop
         offset="0.76699"
         stop-color="#EF2C3F"
         id="stop196" /><stop
         offset="0.776699"
         stop-color="#EF2A3E"
         id="stop197" /><stop
         offset="0.786408"
         stop-color="#EF293C"
         id="stop198" /><stop
         offset="0.796117"
         stop-color="#EE283B"
         id="stop199" /><stop
         offset="0.805825"
         stop-color="#EE2639"
         id="stop200" /><stop
         offset="0.815534"
         stop-color="#EE2538"
         id="stop201" /><stop
         offset="0.825243"
         stop-color="#EE2336"
         id="stop202" /><stop
         offset="0.834951"
         stop-color="#ED2234"
         id="stop203" /><stop
         offset="0.84466"
         stop-color="#ED2033"
         id="stop204" /><stop
         offset="0.854369"
         stop-color="#ED1F31"
         id="stop205" /><stop
         offset="0.864078"
         stop-color="#EC1D2F"
         id="stop206" /><stop
         offset="0.873786"
         stop-color="#EC1C2E"
         id="stop207" /><stop
         offset="0.883495"
         stop-color="#EC1A2C"
         id="stop208" /><stop
         offset="0.893204"
         stop-color="#EB192A"
         id="stop209" /><stop
         offset="0.902913"
         stop-color="#EB1729"
         id="stop210" /><stop
         offset="0.912621"
         stop-color="#EB1527"
         id="stop211" /><stop
         offset="0.92233"
         stop-color="#EA1425"
         id="stop212" /><stop
         offset="0.932039"
         stop-color="#EA1223"
         id="stop213" /><stop
         offset="0.941748"
         stop-color="#EA1122"
         id="stop214" /><stop
         offset="0.951456"
         stop-color="#E90F20"
         id="stop215" /><stop
         offset="0.961165"
         stop-color="#E90D1E"
         id="stop216" /><stop
         offset="0.970874"
         stop-color="#E90C1C"
         id="stop217" /><stop
         offset="0.980583"
         stop-color="#E80A1A"
         id="stop218" /><stop
         offset="0.990291"
         stop-color="#E80818"
         id="stop219" /><stop
         offset="1"
         stop-color="#E80717"
         id="stop220" /></linearGradient><linearGradient
       x1="3345"
       y1="733"
       x2="3345"
       y2="1764"
       gradientUnits="userSpaceOnUse"
       spreadMethod="reflect"
       id="fill2"><stop
         offset="0"
         stop-color="#0EE4F4"
         id="stop221" /><stop
         offset="0.00869565"
         stop-color="#0EE3F4"
         id="stop222" /><stop
         offset="0.0173913"
         stop-color="#0FE3F4"
         id="stop223" /><stop
         offset="0.026087"
         stop-color="#0FE3F4"
         id="stop224" /><stop
         offset="0.0347826"
         stop-color="#10E3F4"
         id="stop225" /><stop
         offset="0.0434783"
         stop-color="#11E3F4"
         id="stop226" /><stop
         offset="0.0521739"
         stop-color="#11E3F4"
         id="stop227" /><stop
         offset="0.0608696"
         stop-color="#12E3F4"
         id="stop228" /><stop
         offset="0.0695652"
         stop-color="#12E3F4"
         id="stop229" /><stop
         offset="0.0782609"
         stop-color="#13E3F4"
         id="stop230" /><stop
         offset="0.0869565"
         stop-color="#14E2F4"
         id="stop231" /><stop
         offset="0.0956522"
         stop-color="#14E2F4"
         id="stop232" /><stop
         offset="0.104348"
         stop-color="#15E2F4"
         id="stop233" /><stop
         offset="0.113043"
         stop-color="#15E2F4"
         id="stop234" /><stop
         offset="0.121739"
         stop-color="#16E1F4"
         id="stop235" /><stop
         offset="0.130435"
         stop-color="#16E1F4"
         id="stop236" /><stop
         offset="0.13913"
         stop-color="#17E1F4"
         id="stop237" /><stop
         offset="0.147826"
         stop-color="#18E0F5"
         id="stop238" /><stop
         offset="0.156522"
         stop-color="#18E0F5"
         id="stop239" /><stop
         offset="0.165217"
         stop-color="#19E0F5"
         id="stop240" /><stop
         offset="0.173913"
         stop-color="#19DFF5"
         id="stop241" /><stop
         offset="0.182609"
         stop-color="#1ADFF5"
         id="stop242" /><stop
         offset="0.191304"
         stop-color="#1ADEF5"
         id="stop243" /><stop
         offset="0.2"
         stop-color="#1BDEF5"
         id="stop244" /><stop
         offset="0.208696"
         stop-color="#1BDDF5"
         id="stop245" /><stop
         offset="0.217391"
         stop-color="#1CDDF5"
         id="stop246" /><stop
         offset="0.226087"
         stop-color="#1CDCF5"
         id="stop247" /><stop
         offset="0.234783"
         stop-color="#1DDCF5"
         id="stop248" /><stop
         offset="0.243478"
         stop-color="#1DDBF5"
         id="stop249" /><stop
         offset="0.252174"
         stop-color="#1EDBF5"
         id="stop250" /><stop
         offset="0.26087"
         stop-color="#1EDAF5"
         id="stop251" /><stop
         offset="0.269565"
         stop-color="#1FDAF5"
         id="stop252" /><stop
         offset="0.278261"
         stop-color="#1FD9F5"
         id="stop253" /><stop
         offset="0.286957"
         stop-color="#20D8F5"
         id="stop254" /><stop
         offset="0.295652"
         stop-color="#20D8F5"
         id="stop255" /><stop
         offset="0.304348"
         stop-color="#21D7F5"
         id="stop256" /><stop
         offset="0.313043"
         stop-color="#21D6F6"
         id="stop257" /><stop
         offset="0.321739"
         stop-color="#22D6F6"
         id="stop258" /><stop
         offset="0.330435"
         stop-color="#22D5F6"
         id="stop259" /><stop
         offset="0.33913"
         stop-color="#23D4F6"
         id="stop260" /><stop
         offset="0.347826"
         stop-color="#23D3F6"
         id="stop261" /><stop
         offset="0.356522"
         stop-color="#23D3F6"
         id="stop262" /><stop
         offset="0.365217"
         stop-color="#24D2F6"
         id="stop263" /><stop
         offset="0.373913"
         stop-color="#24D1F6"
         id="stop264" /><stop
         offset="0.382609"
         stop-color="#25D0F6"
         id="stop265" /><stop
         offset="0.391304"
         stop-color="#25D0F6"
         id="stop266" /><stop
         offset="0.4"
         stop-color="#26CFF6"
         id="stop267" /><stop
         offset="0.408696"
         stop-color="#26CEF6"
         id="stop268" /><stop
         offset="0.417391"
         stop-color="#26CDF6"
         id="stop269" /><stop
         offset="0.426087"
         stop-color="#27CCF6"
         id="stop270" /><stop
         offset="0.434783"
         stop-color="#27CBF6"
         id="stop271" /><stop
         offset="0.443478"
         stop-color="#28CAF6"
         id="stop272" /><stop
         offset="0.452174"
         stop-color="#28C9F6"
         id="stop273" /><stop
         offset="0.46087"
         stop-color="#28C8F6"
         id="stop274" /><stop
         offset="0.469565"
         stop-color="#29C7F6"
         id="stop275" /><stop
         offset="0.478261"
         stop-color="#29C6F6"
         id="stop276" /><stop
         offset="0.486957"
         stop-color="#29C5F6"
         id="stop277" /><stop
         offset="0.495652"
         stop-color="#2AC4F6"
         id="stop278" /><stop
         offset="0.504348"
         stop-color="#2AC3F6"
         id="stop279" /><stop
         offset="0.513043"
         stop-color="#2AC2F6"
         id="stop280" /><stop
         offset="0.521739"
         stop-color="#2BC1F6"
         id="stop281" /><stop
         offset="0.530435"
         stop-color="#2BC0F7"
         id="stop282" /><stop
         offset="0.53913"
         stop-color="#2BBFF7"
         id="stop283" /><stop
         offset="0.547826"
         stop-color="#2CBEF7"
         id="stop284" /><stop
         offset="0.556522"
         stop-color="#2CBDF7"
         id="stop285" /><stop
         offset="0.565217"
         stop-color="#2CBCF7"
         id="stop286" /><stop
         offset="0.573913"
         stop-color="#2DBBF7"
         id="stop287" /><stop
         offset="0.582609"
         stop-color="#2DB9F7"
         id="stop288" /><stop
         offset="0.591304"
         stop-color="#2DB8F7"
         id="stop289" /><stop
         offset="0.6"
         stop-color="#2EB7F7"
         id="stop290" /><stop
         offset="0.608696"
         stop-color="#2EB6F7"
         id="stop291" /><stop
         offset="0.617391"
         stop-color="#2EB5F7"
         id="stop292" /><stop
         offset="0.626087"
         stop-color="#2EB3F7"
         id="stop293" /><stop
         offset="0.634783"
         stop-color="#2FB2F7"
         id="stop294" /><stop
         offset="0.643478"
         stop-color="#2FB1F7"
         id="stop295" /><stop
         offset="0.652174"
         stop-color="#2FAFF7"
         id="stop296" /><stop
         offset="0.66087"
         stop-color="#2FAEF7"
         id="stop297" /><stop
         offset="0.669565"
         stop-color="#30ADF7"
         id="stop298" /><stop
         offset="0.678261"
         stop-color="#30ABF7"
         id="stop299" /><stop
         offset="0.686957"
         stop-color="#30AAF7"
         id="stop300" /><stop
         offset="0.695652"
         stop-color="#30A9F7"
         id="stop301" /><stop
         offset="0.704348"
         stop-color="#31A7F7"
         id="stop302" /><stop
         offset="0.713043"
         stop-color="#31A6F7"
         id="stop303" /><stop
         offset="0.721739"
         stop-color="#31A5F7"
         id="stop304" /><stop
         offset="0.730435"
         stop-color="#31A3F7"
         id="stop305" /><stop
         offset="0.73913"
         stop-color="#31A2F7"
         id="stop306" /><stop
         offset="0.747826"
         stop-color="#32A0F7"
         id="stop307" /><stop
         offset="0.756522"
         stop-color="#329FF7"
         id="stop308" /><stop
         offset="0.765217"
         stop-color="#329DF7"
         id="stop309" /><stop
         offset="0.773913"
         stop-color="#329CF7"
         id="stop310" /><stop
         offset="0.782609"
         stop-color="#329AF7"
         id="stop311" /><stop
         offset="0.791304"
         stop-color="#3299F7"
         id="stop312" /><stop
         offset="0.8"
         stop-color="#3397F7"
         id="stop313" /><stop
         offset="0.808696"
         stop-color="#3396F7"
         id="stop314" /><stop
         offset="0.817391"
         stop-color="#3394F7"
         id="stop315" /><stop
         offset="0.826087"
         stop-color="#3392F7"
         id="stop316" /><stop
         offset="0.834783"
         stop-color="#3391F7"
         id="stop317" /><stop
         offset="0.843478"
         stop-color="#338FF7"
         id="stop318" /><stop
         offset="0.852174"
         stop-color="#338EF7"
         id="stop319" /><stop
         offset="0.86087"
         stop-color="#348CF7"
         id="stop320" /><stop
         offset="0.869565"
         stop-color="#348AF7"
         id="stop321" /><stop
         offset="0.878261"
         stop-color="#3489F7"
         id="stop322" /><stop
         offset="0.886957"
         stop-color="#3487F7"
         id="stop323" /><stop
         offset="0.895652"
         stop-color="#3485F7"
         id="stop324" /><stop
         offset="0.904348"
         stop-color="#3483F7"
         id="stop325" /><stop
         offset="0.913043"
         stop-color="#3482F7"
         id="stop326" /><stop
         offset="0.921739"
         stop-color="#3480F7"
         id="stop327" /><stop
         offset="0.930435"
         stop-color="#347EF7"
         id="stop328" /><stop
         offset="0.93913"
         stop-color="#347CF7"
         id="stop329" /><stop
         offset="0.947826"
         stop-color="#347BF7"
         id="stop330" /><stop
         offset="0.956522"
         stop-color="#3479F7"
         id="stop331" /><stop
         offset="0.965217"
         stop-color="#3477F7"
         id="stop332" /><stop
         offset="0.973913"
         stop-color="#3475F7"
         id="stop333" /><stop
         offset="0.982609"
         stop-color="#3473F7"
         id="stop334" /><stop
         offset="0.991304"
         stop-color="#3471F7"
         id="stop335" /><stop
         offset="1"
         stop-color="#3570F8"
         id="stop336" /></linearGradient></defs><g
     transform="translate(-419 -305)"
     id="g344"><path
       d="M513 905.916C513.753 998.582 516.263 1091.25 517.016 1183.91L853.227 1143.6 529.516 1612.37 571.53 1884 1178 1845.04 1167.06 1543.05 863.137 1569.46 1167.03 1120.49 1140.6 863 513 905.916Z"
       stroke="#230A68"
       stroke-width="166.146"
       stroke-miterlimit="8"
       fill="#230A68"
       fill-rule="evenodd"
       id="path336" /><path
       d="M2488.83 542.805C2428.3 500.985 2176.28 412.942 1891.24 506.488 1891.61 504.837 1552.28 582.425 1462.03 1130.49 1424.25 1431.95 1611.16 1634.82 1623.81 1629.04 1792.29 1817.05 2036.42 1794.12 2039.81 1794.12 2483.33 1799.99 2540.1 1667.59 2544.96 1619.13L2567 1023.9 2023.31 1014.94 2010.08 1282.3 2224.73 1298.77C2220 1371.18 2197.77 1411.88 2066.23 1397.92 1865.78 1338.43 1876.93 1181.55 1876.55 1182.18 1874.41 1180.66 1868.39 1057.87 2012.75 909.853 2106.33 840.469 2231.26 848.402 2232.9 849.02 2230.88 847.71 2379.31 869.387 2452.52 879.571L2488.83 542.805Z"
       stroke="#66010C"
       stroke-width="166.146"
       stroke-miterlimit="8"
       fill="#66010C"
       fill-rule="evenodd"
       id="path337" /><path
       d="M2999.65 811 3334.24 876.193C3322.72 926.568 3117.31 1517.36 3242.73 1575.56 3332.91 1600.78 3465.14 1130.55 3483.94 878.111L3809 940.113C3760.85 1687.43 3369.83 1857.77 3217.17 1840.89 2675.94 1790.39 2913.28 1149.19 2999.65 811Z"
       stroke="#230A68"
       stroke-width="166.146"
       stroke-miterlimit="8"
       fill="#230A68"
       fill-rule="evenodd"
       id="path338" /><path
       d="M505 827.9 514.901 1105.1 844.951 1065.5 521.502 1534.1 561.108 1808 1175 1765.1 1165.1 1464.8 854.852 1491.2 1159.64 1042.4 1135.05 785 505 827.9Z"
       stroke="#324AC9"
       stroke-width="166.146"
       stroke-miterlimit="8"
       fill="#324AC9"
       fill-rule="evenodd"
       id="path339" /><path
       d="m 2500.57,465.747 c -60.5,-41.789 -324.59,-129.766 -609.51,-36.291 0.37,-1.649 -338.82,75.881 -429.03,623.534 -37.77,301.23 149.06,503.95 161.71,498.17 168.41,187.87 412.44,164.96 415.83,164.96 443.33,5.86 500.07,-126.43 504.93,-174.85 l 31.5,-594.789 -552.93,-21.127 -13.22,279.336 214.55,16.45 c -4.72,72.36 -26.94,113.03 -158.43,99.08 -200.36,-59.45 -189.22,-216.21 -189.59,-215.58 -2.15,-1.52 10.6926,79.3948 154.9826,-68.5132 93.55,-69.33203 223.5628,-150.36908 225.2028,-149.75108 -2.02,-1.308 89.3889,212.45038 162.5589,222.62538 z"
       stroke="#9d1413"
       stroke-width="166.146"
       stroke-miterlimit="8"
       fill="#9d1413"
       fill-rule="evenodd"
       id="path340"
       sodipodi:nodetypes="cccccccccccccccc" /><path
       d="M3003.65 733 3338.24 798.193C3326.72 848.568 3121.31 1439.36 3246.73 1497.56 3336.91 1522.78 3416.18 1087.83 3495 823.044L3813 862.113C3764.85 1609.43 3373.83 1779.77 3221.17 1762.89 2679.94 1712.39 2917.28 1071.19 3003.65 733Z"
       stroke="#324AC9"
       stroke-width="166.146"
       stroke-miterlimit="8"
       fill="#324AC9"
       fill-rule="evenodd"
       id="path341" /><path
       d="M505 827.9 514.901 1105.1 844.951 1065.5 521.502 1534.1 561.108 1808 1175 1765.1 1165.1 1464.8 854.852 1491.2 1158.5 1042.4 1132.09 785 505 827.9Z"
       fill="url(#fill0)"
       fill-rule="evenodd"
       id="path342" /><path
       d="m 2487.9,465.747 c -89.7585,-52.58875 -194.7185,-72.47797 -297.2648,-76.74756 -126.935,-5.28504 -259.3659,9.28113 -371.917,69.35693 -122.1685,65.20926 -212.6011,178.57019 -269.7263,302.92004 -50.705,110.37434 -87.3481,229.45021 -91.4992,351.05009 -5.1738,151.5567 29.5727,320.993 144.184,421.3666 44.0493,38.5773 85.3093,80.9024 136.405,110.8293 97.4019,57.0483 212.475,73.4256 324.599,72.0708 123.2373,-1.489 250.5392,-5.5538 365.5319,-54.0856 46.1522,-19.4782 94.8267,-49.9992 110.2311,-99.7976 13.2596,-42.8651 12.2614,-88.0317 15.0708,-132.3288 10.2177,-161.1062 6.5131,-322.6474 12.4855,-483.9002 -181.0665,-2.986 -362.1335,-5.972 -543.2,-8.958 -4.4067,89.0556 -8.8133,178.1114 -13.22,267.167 71.4866,5.4833 142.9734,10.9667 214.46,16.45 -0.3364,33.7849 -10.1631,75.3889 -44.1166,89.216 -68.6285,27.948 -147.7349,7.7798 -207.251,-32.7963 -57.3626,-39.1078 -97.4292,-105.4335 -96.7861,-176.2262 0.7132,-78.5039 39.5543,-150.96991 86.3255,-211.52818 25.1291,-32.53667 54.0569,-63.56604 91.5866,-82.29342 75.0555,-37.45282 161.9394,-38.53812 244.2551,-27.08012 48.7821,6.79027 97.5001,14.03056 146.2565,21.0009 18.4093,-15.7143 11.8057,-40.873 14.0949,-62.10617 9.8317,-91.19308 19.6634,-182.38643 29.4951,-273.57951 z"
       fill="url(#fill1)"
       fill-rule="evenodd"
       id="path343"
       inkscape:path-effect="#path-effect344"
       inkscape:original-d="M2487.9 465.747C2427.43 423.958 2175.63 335.981 1890.85 429.456 1891.22 427.807 1552.19 505.337 1462.03 1052.99 1424.28 1354.22 1611.02 1556.94 1623.66 1551.16 1791.98 1739.03 2035.9 1716.12 2039.29 1716.12 2482.41 1721.98 2539.13 1589.69 2543.98 1541.27 2565.93 1344.05 2558.66 1144.74 2566 946.481L2022.8 937.523 2009.58 1204.69 2224.04 1221.14C2219.31 1293.5 2197.11 1334.17 2065.68 1320.22 1865.42 1260.77 1876.55 1104.01 1876.18 1104.64 1874.03 1103.12 1868.02 980.427 2012.25 832.519 2105.74 763.187 2230.56 771.113 2232.2 771.731 2230.18 770.423 2378.48 792.083 2451.62 802.259L2487.9 465.747Z" /><path
       d="m 3003.65,733 c 111.5299,21.73098 223.0601,43.46202 334.59,65.193 -0.8291,3.54294 -1.8286,7.04282 -2.844,10.53579 -2.9777,10.24248 -6.1146,20.4377 -9.2461,30.63387 -5.7111,18.59501 -11.4347,37.18634 -17.075,55.80301 -11.6743,38.53315 -23.0089,77.17113 -33.7607,115.97253 -9.3743,33.8303 -18.315,67.7828 -26.6199,101.892 -6.7134,27.5733 -13.0138,55.2493 -18.7053,83.0522 -4.5799,22.3723 -8.7699,44.827 -12.3743,67.3779 -3.1177,19.5056 -5.8076,39.0839 -7.8135,58.7364 -0.7823,7.6648 -1.4616,15.3405 -2.0102,23.0256 -0.8588,12.029 -1.4028,24.0835 -1.4769,36.1438 -0.063,10.3245 0.2141,20.6556 1.0146,30.9508 0.1132,1.4552 0.2387,2.9095 0.3764,4.3626 0.057,0.6001 0.1092,1.2006 0.1723,1.8001 0.088,0.8375 0.1673,1.6761 0.2636,2.5127 0.096,0.8337 0.183,1.6684 0.2873,2.501 0.1024,0.8166 0.1956,1.6344 0.3066,2.4499 0.1105,0.8127 0.2117,1.6268 0.3311,2.4382 0.118,0.8019 0.2263,1.6053 0.3533,2.4058 0.1249,0.7881 0.2401,1.5778 0.3742,2.3643 0.133,0.7801 0.256,1.5619 0.3983,2.3403 0.1405,0.7685 0.2708,1.539 0.4208,2.3057 0.1483,0.7576 0.2862,1.5174 0.4441,2.2731 0.1553,0.7434 0.3001,1.4891 0.4653,2.2303 0.1637,0.7347 0.3166,1.4718 0.4903,2.2042 0.1709,0.7199 0.3307,1.4426 0.5117,2.1601 0.1795,0.7113 0.3478,1.4255 0.5376,2.1341 0.1867,0.6969 0.3621,1.3968 0.5594,2.0907 0.1954,0.6875 0.3793,1.3783 0.5855,2.0626 0.2027,0.6727 0.3937,1.3491 0.6074,2.0184 0.2117,0.663 0.4115,1.3299 0.6343,1.9893 0.2188,0.6477 0.4256,1.2996 0.6558,1.9433 0.2281,0.6382 0.444,1.2808 0.6836,1.9147 0.2365,0.6254 0.4605,1.2557 0.7088,1.8765 0.2449,0.6126 0.4771,1.2305 0.7339,1.8382 0.2534,0.5997 0.4939,1.2049 0.7594,1.7993 0.2619,0.5866 0.5108,1.1792 0.7849,1.7602 0.2703,0.573 0.5275,1.1524 0.8102,1.7194 0.2791,0.5601 0.545,1.1269 0.8367,1.6806 0.2879,0.5467 0.5624,1.1006 0.8629,1.6404 0.2967,0.533 0.5798,1.0738 0.8892,1.5996 0.3055,0.5193 0.5975,1.0469 0.9158,1.5585 0.3144,0.5055 0.6153,1.0196 0.9424,1.5169 0.3221,0.4897 0.6307,0.9885 0.9656,1.4696 0.331,0.4757 0.6487,0.961 0.9924,1.4277 0.3398,0.4613 0.6663,0.9326 1.0187,1.3843 0.3491,0.4474 0.685,0.9054 1.0467,1.3427 0.3597,0.4347 0.7062,0.8806 1.0785,1.3045 0.369,0.4201 0.7249,0.852 1.1064,1.2608 0.3783,0.4053 0.7437,0.8231 1.1344,1.2166 0.3877,0.3905 0.7628,0.794 1.1626,1.172 0.3972,0.3755 0.782,0.7646 1.1911,1.1271 0.4067,0.3604 0.8013,0.735 1.2196,1.0818 0.4163,0.3452 0.8208,0.7051 1.2484,1.0361 0.426,0.3298 0.8405,0.6749 1.2774,0.99 0.4357,0.3143 0.8604,0.6444 1.3066,0.9436 0.4455,0.2986 0.8804,0.6136 1.3359,0.8967 0.4553,0.2829 0.9006,0.5826 1.3655,0.8494 0.4652,0.2671 0.9209,0.5513 1.3952,0.8019 0.475,0.251 0.9415,0.519 1.4248,0.7537 0.4762,0.2312 0.9157,0.5622 1.4284,0.6936 0.3653,0.094 0.7269,0.2027 1.0956,0.282 0.3538,0.076 0.7048,0.1673 1.0614,0.2295 0.3548,0.062 0.7073,0.1387 1.0644,0.1866 0.3557,0.048 0.7098,0.1105 1.0672,0.1441 0.3567,0.034 0.7123,0.082 1.0701,0.1019 0.3576,0.02 0.7147,0.054 1.0729,0.06 0.3585,0.01 0.7171,0.026 1.0756,0.018 0.3594,-0.01 0.7194,-0 1.0783,-0.024 0.3603,-0.022 0.7217,-0.029 1.0809,-0.065 0.3612,-0.036 0.724,-0.057 1.0835,-0.1061 0.362,-0.049 0.7262,-0.085 1.0861,-0.147 0.3628,-0.063 0.7283,-0.1118 1.0886,-0.1875 0.3669,-0.077 0.7369,-0.1407 1.1009,-0.2304 0.3644,-0.09 0.7322,-0.1665 1.0934,-0.2684 0.3652,-0.1031 0.7343,-0.1934 1.0959,-0.3084 0.3687,-0.1174 0.7417,-0.2221 1.1065,-0.351 0.3667,-0.1296 0.7378,-0.2471 1.1004,-0.3878 0.3674,-0.1426 0.7397,-0.2735 1.1028,-0.4271 0.3709,-0.1568 0.7468,-0.3023 1.113,-0.4697 0.369,-0.1686 0.7431,-0.3263 1.1072,-0.5051 0.3723,-0.1828 0.7499,-0.355 1.1172,-0.5477 0.3706,-0.1944 0.7467,-0.3786 1.1121,-0.5825 0.3749,-0.2093 0.7554,-0.4089 1.1251,-0.6272 0.3644,-0.2151 0.7344,-0.4212 1.0936,-0.6449 0.3691,-0.2299 0.7441,-0.4508 1.1078,-0.6892 0.3741,-0.2451 0.7541,-0.4815 1.1227,-0.7348 0.3733,-0.2566 0.7525,-0.5047 1.1202,-0.7691 0.3741,-0.2691 0.7543,-0.53 1.1229,-0.8066 0.3743,-0.281 0.7547,-0.5541 1.1235,-0.8425 0.3763,-0.2942 0.7587,-0.5809 1.1294,-0.8822 0.3754,-0.3052 0.7568,-0.603 1.1266,-0.915 0.376,-0.3171 0.7581,-0.6272 1.1284,-0.9509 0.3796,-0.3319 0.7653,-0.657 1.1393,-0.9952 0.3769,-0.3408 0.7597,-0.6752 1.131,-1.0221 0.3781,-0.3532 0.7621,-0.7002 1.1346,-1.0592 0.4136,-0.3987 0.8308,-0.7936 1.2408,-1.1959 3.2149,-3.1546 6.2318,-6.5067 9.1015,-9.9768 3.5481,-4.2905 6.8728,-8.7623 10.0421,-13.3386 4.5835,-6.6185 8.8342,-13.4625 12.8683,-20.428 2.2337,-3.8568 4.397,-7.7542 6.5048,-11.6812 5.9686,-11.1205 11.4831,-22.4802 16.7042,-33.9691 3.6823,-8.1029 7.2147,-16.2737 10.6269,-24.4939 4.8613,-11.7112 9.4801,-23.5223 13.9119,-35.4024 7.7712,-20.8318 14.974,-41.8729 21.7617,-63.0445 8.5819,-26.768 16.5031,-53.7458 23.9002,-80.8643 8.7265,-31.9925 16.726,-64.1823 24.0631,-96.5213 7.3059,-32.2017 13.9571,-64.5528 19.8929,-97.03517 5.0058,-27.39362 9.5052,-54.8816 13.3616,-82.46109 3.0314,-21.67959 5.6694,-43.41637 7.7516,-65.2083 0.7755,-8.11633 1.4717,-16.24029 2.0821,-24.37072 111.2923,13.02288 222.5849,26.0458 333.8772,39.06868 -0.2012,3.01763 -0.3894,6.03617 -0.6026,9.05298 -0.2044,2.89221 -0.3963,5.78533 -0.6123,8.6767 -0.2146,2.87469 -0.417,5.75034 -0.6432,8.62415 -0.2249,2.85723 -0.4375,5.71546 -0.674,8.57176 -0.2351,2.8398 -0.4579,5.68066 -0.7045,8.51949 -0.2452,2.82243 -0.4781,5.64597 -0.7349,8.46737 -0.2553,2.8051 -0.4982,5.61136 -0.765,8.41539 -0.2653,2.78782 -0.5182,5.57684 -0.795,8.36354 -0.2751,2.77058 -0.538,5.54242 -0.8246,8.31184 -0.285,2.7534 -0.5577,5.5081 -0.8542,8.26028 -0.2948,2.73625 -0.5773,5.47386 -0.8835,8.20885 -0.3045,2.71915 -0.5967,5.43971 -0.9126,8.15756 -0.3141,2.7021 -0.6159,5.40567 -0.9414,8.10642 -0.3237,2.68508 -0.6351,5.37168 -0.9702,8.05536 -0.3331,2.6677 -0.6539,5.33696 -0.9984,8.00321 -0.3426,2.65123 -0.673,5.30408 -1.0269,7.95381 -0.352,2.63437 -0.6917,5.27039 -1.055,7.90319 -0.3612,2.6176 -0.7102,5.2369 -1.0828,7.8528 -0.3704,2.6008 -0.7286,5.2033 -1.1104,7.8025 -0.3796,2.584 -0.747,5.1699 -1.1379,7.7523 -0.3886,2.5674 -0.7651,5.1366 -1.1651,7.7022 -0.3976,2.5508 -0.7831,5.1035 -1.1921,7.6524 -0.4066,2.5342 -0.8011,5.0703 -1.2189,7.6026 -0.4155,2.5176 -0.8188,5.0373 -1.2456,7.553 -0.4242,2.5012 -0.8364,5.0044 -1.2719,7.5036 -0.4329,2.4846 -0.8539,4.9715 -1.2981,7.4542 -0.4416,2.4682 -0.8712,4.9387 -1.3241,7.405 -0.4502,2.4519 -0.8884,4.9061 -1.3498,7.3559 -0.4588,2.4356 -0.9056,4.8735 -1.3755,7.307 -0.4672,2.4194 -0.9224,4.8411 -1.4007,7.2583 -0.4756,2.4031 -0.9393,4.8087 -1.426,7.2096 -0.4839,2.387 -0.9558,4.7764 -1.4508,7.1611 -0.4922,2.3709 -0.9724,4.7442 -1.4756,7.1128 -0.5003,2.3548 -0.9888,4.7121 -1.5002,7.0645 -0.5084,2.3388 -1.005,4.6801 -1.5244,7.0165 -0.5165,2.3227 -1.0211,4.6482 -1.5486,6.9685 -0.5244,2.3068 -1.037,4.6164 -1.5724,6.9207 -0.5323,2.291 -1.0529,4.5847 -1.5962,6.873 -0.5401,2.2753 -1.0685,4.5533 -1.6197,6.8259 -0.55,2.268 -1.0883,4.5388 -1.6493,6.8041 -0.5556,2.2435 -1.0995,4.49 -1.6661,6.7307 -0.5632,2.2278 -1.1148,4.4586 -1.6889,6.6837 -0.5708,2.2121 -1.1299,4.4273 -1.7116,6.6366 -0.5782,2.1965 -1.1449,4.3962 -1.734,6.5898 -0.5857,2.181 -1.1598,4.3651 -1.7562,6.5432 -0.5931,2.1654 -1.1745,4.3341 -1.7783,6.4966 -0.6003,2.15 -1.1891,4.3032 -1.8001,6.4502 -0.6075,2.1345 -1.2035,4.2724 -1.8217,6.4039 -0.6147,2.1192 -1.2179,4.2417 -1.8432,6.3578 -0.6217,2.1038 -1.232,4.2111 -1.8643,6.3118 -0.6287,2.0885 -1.246,4.1806 -1.8853,6.2659 -0.6356,2.0734 -1.2599,4.1502 -1.9061,6.2203 -0.6425,2.0581 -1.2736,4.1198 -1.9267,6.1746 -0.6492,2.043 -1.2872,4.0896 -1.947,6.1293 -0.656,2.0279 -1.3007,4.0594 -1.9672,6.0839 -0.6626,2.0129 -1.3141,4.0294 -1.9871,6.0388 -0.6693,1.9979 -1.3273,3.9995 -2.0069,5.9938 -0.6758,1.9829 -1.3403,3.9696 -2.0264,5.9489 -0.6822,1.968 -1.3533,3.9398 -2.0458,5.9042 -0.6885,1.9531 -1.366,3.9101 -2.0649,5.8596 -0.6948,1.9382 -1.3786,3.8805 -2.0837,5.8151 -0.7011,1.9235 -1.3912,3.851 -2.1025,5.7708 -0.7073,1.9088 -1.4036,3.8217 -2.121,5.7266 -0.7133,1.8941 -1.4158,3.7924 -2.1392,5.6826 -0.7194,1.8795 -1.4279,3.7632 -2.1574,5.6387 -0.7253,1.8649 -1.4398,3.734 -2.1752,5.595 -0.7313,1.8505 -1.4517,3.7053 -2.1931,5.5518 -0.7398,1.8428 -1.4689,3.6899 -2.2188,5.5287 -0.7428,1.8213 -1.4749,3.647 -2.2277,5.4643 -0.7484,1.8069 -1.4863,3.6183 -2.2446,5.4211 -0.7541,1.7926 -1.4976,3.5896 -2.2615,5.378 -0.7595,1.7779 -1.5084,3.5603 -2.2776,5.3339 -0.7651,1.7641 -1.5197,3.5327 -2.2946,5.2924 -0.7705,1.7498 -1.5305,3.5043 -2.3107,5.2497 -0.7759,1.7357 -1.5413,3.476 -2.3268,5.2073 -0.7811,1.7215 -1.5518,3.4477 -2.3426,5.1648 -0.7862,1.7074 -1.5622,3.4197 -2.3581,5.1226 -0.7914,1.6934 -1.5725,3.3917 -2.3735,5.0806 -0.7965,1.6794 -1.5827,3.3637 -2.3887,5.0386 -0.8014,1.6655 -1.5927,3.3359 -2.4036,4.9968 -0.8064,1.6516 -1.6026,3.3081 -2.4184,4.9551 -0.8112,1.6377 -1.6124,3.2805 -2.4329,4.9136 -0.816,1.6239 -1.622,3.253 -2.4473,4.8722 -0.8207,1.6102 -1.6314,3.2255 -2.4614,4.831 -0.8253,1.5964 -1.6408,3.1981 -2.4753,4.7898 -0.8299,1.5828 -1.65,3.1709 -2.4891,4.7489 -0.8345,1.5694 -1.6592,3.1441 -2.5028,4.7087 -0.8421,1.5614 -1.6743,3.1282 -2.5254,4.6848 -0.8432,1.542 -1.6768,3.0895 -2.529,4.6266 -0.8475,1.5286 -1.6854,3.0626 -2.5419,4.5862 -0.8517,1.5152 -1.6939,3.0358 -2.5545,4.546 -0.8559,1.5018 -1.7023,3.0091 -2.567,4.5058 -0.86,1.4885 -1.7105,2.9825 -2.5792,4.4659 -0.864,1.4752 -1.7186,2.9559 -2.5914,4.4259 -0.8679,1.462 -1.7265,2.9295 -2.6031,4.3863 -0.8718,1.4488 -1.7343,2.9032 -2.6148,4.3467 -0.8756,1.4356 -1.742,2.8769 -2.6262,4.3072 -0.8793,1.4225 -1.7495,2.8508 -2.6374,4.268 -0.883,1.4094 -1.757,2.8247 -2.6484,4.2288 -0.8867,1.3964 -1.7642,2.7987 -2.6593,4.1898 -0.8901,1.3835 -1.7713,2.7728 -2.6698,4.1509 -0.8936,1.3705 -1.7783,2.747 -2.6802,4.1121 -0.897,1.3577 -1.7852,2.7213 -2.6904,4.0736 -0.9004,1.3449 -1.7918,2.6957 -2.7004,4.0351 -0.9071,1.3372 -1.8055,2.6805 -2.7208,4.0122 -0.9067,1.3193 -1.8048,2.6447 -2.7197,3.9585 -0.9099,1.3066 -1.8111,2.6193 -2.729,3.9204 -0.913,1.294 -1.8174,2.5941 -2.7383,3.8825 -0.9159,1.2814 -1.8233,2.5689 -2.7471,3.8447 -0.9188,1.2689 -1.8292,2.5439 -2.7558,3.8071 -0.9217,1.2564 -1.835,2.519 -2.7644,3.7696 -0.9244,1.244 -1.8406,2.4941 -2.7727,3.7323 -0.9271,1.2316 -1.846,2.4693 -2.7808,3.6951 -0.9297,1.2192 -1.8513,2.4446 -2.7887,3.658 -0.9323,1.2069 -1.8565,2.4201 -2.7964,3.6211 -0.935,1.195 -1.8621,2.3963 -2.8046,3.5854 -0.9372,1.1824 -1.8665,2.3711 -2.8111,3.5476 -0.9396,1.1702 -1.8713,2.3468 -2.8182,3.5111 -0.9418,1.1581 -1.8759,2.3226 -2.825,3.4748 -0.9441,1.146 -1.8804,2.2985 -2.8317,3.4385 -0.9462,1.134 -1.8847,2.2745 -2.8381,3.4025 -0.9483,1.122 -1.8889,2.2505 -2.8443,3.3665 -0.9503,1.11 -1.893,2.2266 -2.8503,3.3307 -0.9523,1.0981 -1.897,2.2028 -2.8562,3.295 -0.9541,1.0863 -1.9008,2.1792 -2.8618,3.2594 -0.9559,1.0746 -1.9045,2.1558 -2.8673,3.2243 -0.9613,1.0668 -1.9153,2.1403 -2.8834,3.201 -0.9593,1.051 -1.9114,2.1086 -2.8774,3.1535 -0.9608,1.0394 -1.9146,2.0854 -2.8821,3.1186 -0.9624,1.0278 -1.9177,2.0622 -2.8867,3.0838 -0.9638,1.0162 -1.9207,2.0391 -2.891,3.0491 -0.9652,1.0046 -1.9236,2.016 -2.8952,3.0145 -0.9665,0.9932 -1.9262,1.9931 -2.8991,2.9801 -0.9678,0.9817 -1.9288,1.9702 -2.9029,2.9458 -0.969,0.9704 -1.9312,1.9475 -2.9064,2.9116 -0.9701,0.9591 -1.9335,1.9249 -2.9097,2.8777 -0.9711,0.9478 -1.9356,1.9023 -2.9128,2.8438 -0.9721,0.9366 -1.9377,1.8799 -2.9157,2.8101 -0.973,0.9254 -1.9395,1.8575 -2.9185,2.7765 -0.9737,0.9142 -1.9412,1.8352 -2.9209,2.7431 -0.9745,0.9031 -1.9428,1.813 -2.9231,2.7098 -0.9753,0.892 -1.9443,1.7909 -2.9253,2.6766 -0.9758,0.881 -1.9455,1.7689 -2.9271,2.6436 -0.9765,0.8702 -1.9469,1.7472 -2.9291,2.611 -0.9844,0.8657 -1.9628,1.7383 -2.9528,2.5975 -0.9773,0.8482 -1.9486,1.7033 -2.9314,2.5451 -0.9777,0.8374 -1.9494,1.6816 -2.9325,2.5126 -0.9779,0.8267 -1.95,1.6601 -2.9333,2.4803 -0.9781,0.8159 -1.9505,1.6387 -2.9339,2.4482 -0.9783,0.8052 -1.9509,1.6172 -2.9344,2.416 -0.9783,0.7946 -1.951,1.5961 -2.9345,2.3842 -0.9783,0.784 -1.9511,1.5748 -2.9345,2.3524 -0.9782,0.7734 -1.951,1.5538 -2.9343,2.3208 -0.9781,0.7629 -1.9508,1.5327 -2.9339,2.2892 -0.9778,0.7525 -1.9504,1.5119 -2.9332,2.258 -0.9776,0.7421 -1.95,1.491 -2.9324,2.2267 -0.9772,0.7317 -1.9493,1.4704 -2.9314,2.1956 -0.977,0.7216 -1.9489,1.4501 -2.9306,2.1652 -0.98,0.7138 -1.955,1.4345 -2.9396,2.1418 -0.9811,0.7047 -1.9576,1.4157 -2.9429,2.1145 -0.9007,0.6389 -1.7994,1.2808 -2.7023,1.9167 -16.3516,11.5163 -33.3441,22.1306 -50.9318,31.6563 -15.6164,8.458 -31.7018,16.0599 -48.2022,22.633 -13.8961,5.5356 -28.0872,10.3428 -42.523,14.2666 -10.5243,2.8606 -21.1782,5.2546 -31.9309,7.0823 -8.8127,1.498 -17.6917,2.6186 -26.6071,3.2789 -8.2209,0.6088 -16.4743,0.8232 -24.7139,0.5398 -4.6048,-0.1585 -9.2019,-0.5039 -13.785,-0.9805 -0.5354,-0.056 -1.0713,-0.1062 -1.607,-0.1588 -1.6121,-0.1584 -3.2259,-0.3013 -4.8365,-0.4755 -2.0778,-0.2247 -4.158,-0.4283 -6.2335,-0.6733 -2.0547,-0.2426 -4.1121,-0.4639 -6.1643,-0.7269 -2.0313,-0.2603 -4.0654,-0.4992 -6.094,-0.78 -2.008,-0.2779 -4.019,-0.5344 -6.0241,-0.8328 -1.9847,-0.2954 -3.9728,-0.5693 -5.9544,-0.8853 -1.9617,-0.3127 -3.9269,-0.604 -5.8852,-0.9374 -1.9387,-0.33 -3.8811,-0.6386 -5.8162,-0.9893 -1.9158,-0.3472 -3.8356,-0.6728 -5.7476,-1.0408 -1.893,-0.3642 -3.7904,-0.7069 -5.6793,-1.092 -1.8704,-0.3812 -3.7453,-0.7408 -5.6114,-1.1428 -1.8478,-0.3981 -3.7005,-0.7746 -5.5437,-1.1935 -1.8254,-0.4148 -3.6559,-0.808 -5.4765,-1.2436 -1.8031,-0.4315 -3.6115,-0.8413 -5.4095,-1.2936 -1.7808,-0.448 -3.5673,-0.8744 -5.3428,-1.3432 -1.7588,-0.4645 -3.5235,-0.9072 -5.2766,-1.3925 -1.7368,-0.4808 -3.4798,-0.9398 -5.2107,-1.4414 -1.7149,-0.497 -3.4362,-0.9723 -5.145,-1.4901 -1.6931,-0.5131 -3.393,-1.0045 -5.0797,-1.5384 -1.6715,-0.5291 -3.35,-1.0366 -5.0147,-1.5864 -1.65,-0.545 -3.3072,-1.0684 -4.9502,-1.6341 -1.6285,-0.5608 -3.2646,-1.1 -4.8858,-1.6815 -1.6067,-0.5763 -3.2214,-1.131 -4.8206,-1.728 -1.5859,-0.592 -3.1801,-1.1626 -4.7582,-1.7752 -1.5649,-0.6075 -3.1382,-1.1936 -4.695,-1.8216 -1.5438,-0.6229 -3.0965,-1.2244 -4.6319,-1.8677 -1.523,-0.6381 -3.0551,-1.255 -4.5694,-1.9135 -1.5022,-0.6532 -3.0138,-1.2853 -4.507,-1.9589 -1.4816,-0.6683 -2.9728,-1.3155 -4.4451,-2.004 -1.461,-0.6832 -2.932,-1.3455 -4.3835,-2.0489 -1.4405,-0.698 -2.8914,-1.3753 -4.3221,-2.0933 -1.4203,-0.7128 -2.8511,-1.4049 -4.2612,-2.1375 -1.4,-0.7274 -2.8109,-1.4342 -4.2005,-2.1813 -1.3799,-0.7419 -2.771,-1.4634 -4.1402,-2.2249 -1.36,-0.7563 -2.7313,-1.4924 -4.0803,-2.2681 -1.34,-0.7706 -2.6918,-1.5211 -4.0206,-2.3109 -1.3203,-0.7848 -2.6525,-1.5497 -3.9613,-2.3536 -1.3006,-0.7988 -2.6135,-1.578 -3.9023,-2.3958 -1.2811,-0.8128 -2.5747,-1.6061 -3.8437,-2.4377 -1.2616,-0.8267 -2.5361,-1.6341 -3.7854,-2.4793 -1.2423,-0.8405 -2.4976,-1.6619 -3.7274,-2.5206 -1.223,-0.8541 -2.4595,-1.6894 -3.6697,-2.5616 -1.204,-0.8677 -2.4215,-1.7167 -3.6124,-2.6022 -1.185,-0.8811 -2.3838,-1.7439 -3.5555,-2.6426 -1.1661,-0.8944 -2.3462,-1.7708 -3.4988,-2.6826 -1.1473,-0.9077 -2.3089,-1.7975 -3.4425,-2.7223 -1.1286,-0.9207 -2.2718,-1.824 -3.3865,-2.7616 -1.11,-0.9338 -2.2349,-1.8503 -3.3308,-2.8007 -1.0916,-0.9467 -2.1983,-1.8764 -3.2755,-2.8394 -1.0733,-0.9595 -2.1618,-1.9023 -3.2206,-2.8779 -1.0551,-0.9722 -2.1255,-1.9279 -3.1659,-2.9159 -1.0369,-0.9848 -2.0895,-1.9534 -3.1115,-2.9537 -1.019,-0.9973 -2.0537,-1.9787 -3.0576,-2.9912 -1.0011,-1.0096 -2.0181,-2.0037 -3.0039,-3.0283 -0.9833,-1.0219 -1.9827,-2.0286 -2.9506,-3.0651 -0.9656,-1.0341 -1.9475,-2.0532 -2.8976,-3.1016 -0.9481,-1.0461 -1.9125,-2.0777 -2.8449,-3.1378 -0.9307,-1.0581 -1.8778,-2.1019 -2.7927,-3.1736 -0.9133,-1.0699 -1.8431,-2.1259 -2.7406,-3.2092 -0.8961,-1.0816 -1.8088,-2.1497 -2.6889,-3.2444 -0.879,-1.0933 -1.7747,-2.1733 -2.6377,-3.2793 -0.8619,-1.1048 -1.7407,-2.1966 -2.5866,-3.3138 -0.8451,-1.1163 -1.7071,-2.2199 -2.5359,-3.3482 -0.8284,-1.1275 -1.6736,-2.2427 -2.4857,-3.382 -0.8116,-1.1388 -1.6403,-2.2656 -2.4356,-3.4157 -0.7954,-1.1502 -1.6078,-2.2888 -2.3868,-3.4502 -0.7786,-1.1608 -1.5743,-2.3103 -2.3366,-3.4819 -0.7623,-1.1717 -1.5417,-2.3325 -2.2876,-3.5147 -0.7461,-1.1824 -1.5092,-2.3543 -2.2389,-3.5469 -0.73,-1.1932 -1.4771,-2.376 -2.1906,-3.579 -0.714,-1.2037 -1.4451,-2.3974 -2.1426,-3.6107 -0.6981,-1.2142 -1.4133,-2.4187 -2.095,-3.6421 -0.6823,-1.2245 -1.3816,-2.4396 -2.0475,-3.6731 -0.6667,-1.2348 -1.3503,-2.4605 -2.0006,-3.7039 -0.6511,-1.2449 -1.3191,-2.481 -1.9539,-3.7343 -0.6357,-1.2549 -1.2882,-2.5014 -1.9076,-3.7644 -0.6203,-1.2648 -1.2574,-2.5215 -1.8615,-3.7942 -0.6051,-1.2746 -1.227,-2.5414 -1.8159,-3.8236 -0.59,-1.2844 -1.1967,-2.5612 -1.7706,-3.8528 -0.5749,-1.294 -1.1665,-2.5807 -1.7255,-3.8816 -0.56,-1.3035 -1.1366,-2.6 -1.6808,-3.9101 -0.5453,-1.3129 -1.107,-2.619 -1.6365,-3.9383 -0.5306,-1.3222 -1.0776,-2.6379 -1.5925,-3.9662 -0.5162,-1.3318 -1.0487,-2.6573 -1.5493,-3.995 -0.5015,-1.3404 -1.0193,-2.6749 -1.5054,-4.021 -0.4872,-1.3493 -0.9906,-2.693 -1.4624,-4.0478 -0.473,-1.3582 -0.9621,-2.711 -1.4197,-4.0745 -0.4606,-1.3723 -0.9372,-2.7394 -1.3826,-4.1168 -0.4448,-1.3757 -0.9056,-2.7464 -1.3352,-4.1269 -0.4325,-1.3896 -0.8809,-2.7744 -1.2984,-4.1685 -0.417,-1.3928 -0.8499,-2.781 -1.252,-4.1781 -0.4049,-1.4064 -0.8254,-2.8084 -1.2155,-4.219 -0.3898,-1.4094 -0.7951,-2.8146 -1.1702,-4.2279 -0.3777,-1.4229 -0.7708,-2.8417 -1.1339,-4.2682 -0.3629,-1.4255 -0.7411,-2.8471 -1.0896,-4.2761 -0.3498,-1.4337 -0.7146,-2.8639 -1.0503,-4.301 -0.3365,-1.4411 -0.688,-2.8788 -1.0105,-4.3231 -0.3235,-1.4488 -0.6618,-2.8943 -0.9715,-4.3462 -0.3106,-1.4563 -0.6359,-2.9096 -0.9328,-4.3689 -0.2979,-1.4638 -0.6102,-2.9248 -0.8945,-4.3913 -0.2852,-1.4712 -0.5847,-2.9397 -0.8564,-4.4134 -0.2726,-1.4785 -0.5594,-2.9544 -0.8188,-4.4353 -0.2601,-1.4856 -0.5343,-2.9688 -0.7813,-4.4567 -0.2479,-1.4926 -0.5096,-2.9831 -0.7444,-4.4778 -0.2356,-1.4996 -0.4849,-2.9972 -0.7077,-4.4987 -0.2235,-1.5069 -0.4606,-3.0119 -0.6714,-4.5206 -0.2115,-1.5131 -0.4364,-3.0245 -0.6353,-4.5393 -0.1996,-1.5198 -0.4124,-3.0379 -0.5995,-4.5593 -0.1878,-1.5263 -0.3887,-3.051 -0.5642,-4.5788 -0.1761,-1.5327 -0.3652,-3.064 -0.5292,-4.598 -0.1645,-1.539 -0.3418,-3.0767 -0.4944,-4.617 -0.1531,-1.5452 -0.3189,-3.0892 -0.4601,-4.6355 -0.1423,-1.5579 -0.2971,-3.1146 -0.4277,-4.6734 -0.1305,-1.5573 -0.2733,-3.1137 -0.3922,-4.6719 -0.1194,-1.5631 -0.2509,-3.1254 -0.3589,-4.6894 -0.1083,-1.569 -0.2287,-3.1373 -0.3258,-4.707 -0.098,-1.5807 -0.2074,-3.1607 -0.2941,-4.7421 -0.087,-1.5802 -0.1849,-3.1598 -0.2605,-4.7405 -0.076,-1.5858 -0.1635,-3.1711 -0.2286,-4.7573 -0.066,-1.5975 -0.1426,-3.1946 -0.1975,-4.7925 -0.055,-1.5963 -0.121,-3.1921 -0.1654,-4.7887 -0.044,-1.6016 -0.1001,-3.2029 -0.1343,-4.8047 -0.034,-1.6125 -0.08,-3.2247 -0.1039,-4.8374 -0.024,-1.6113 -0.059,-3.2225 -0.073,-4.8339 -0.014,-1.6161 -0.039,-3.2322 -0.043,-4.8484 -0,-1.6277 -0.019,-3.2553 -0.013,-4.8829 0.01,-1.6254 9e-4,-3.2509 0.016,-4.8763 0.015,-1.63 0.02,-3.26 0.045,-4.8898 0.025,-1.6343 0.04,-3.2688 0.074,-4.903 0.034,-1.6386 0.059,-3.2774 0.1022,-4.9158 0.044,-1.6428 0.078,-3.286 0.1304,-4.9286 0.053,-1.6536 0.097,-3.3076 0.1588,-4.9609 0.062,-1.6508 0.1146,-3.302 0.1855,-4.9524 0.071,-1.6547 0.1328,-3.3097 0.2126,-4.964 0.08,-1.6584 0.1508,-3.3172 0.2393,-4.9752 0.089,-1.6622 0.1684,-3.325 0.2657,-4.9868 0.098,-1.6788 0.1876,-3.3582 0.2943,-5.0365 0.1061,-1.6691 0.2034,-3.3388 0.3177,-5.0073 0.1152,-1.6819 0.2224,-3.3644 0.345,-5.0458 0.1134,-1.5549 0.223,-3.1102 0.3402,-4.6649 1.8457,-24.495 4.5332,-48.9228 7.8564,-73.26 3.5137,-25.7319 7.7374,-51.3643 12.4873,-76.896 5.9793,-32.1408 12.7946,-64.1223 20.1668,-95.9711 9.1756,-39.6401 19.2218,-79.07362 29.6807,-118.39292 7.3556,-27.65286 14.9212,-55.24932 22.5098,-82.83896 5.9669,-21.69328 11.9513,-43.38193 17.8233,-65.10112 4.4967,-16.63216 8.9178,-33.28511 13.1942,-49.97539 0.067,-0.2626 0.1346,-0.52521 0.2019,-0.78781 z"
       fill="url(#fill2)"
       fill-rule="evenodd"
       id="path344"
       inkscape:path-effect="#path-effect345"
       inkscape:original-d="M3003.65 733 3338.24 798.193C3326.72 848.568 3121.31 1439.36 3246.73 1497.56 3336.91 1522.78 3460.32 1075.48 3479.12 823.044L3813 862.113C3764.85 1609.43 3373.83 1779.77 3221.17 1762.89 2679.94 1712.39 2917.28 1071.19 3003.65 733Z" /></g></svg>
