<?xml version="1.0" encoding="UTF-8" standalone="no"?>
<!DOCTYPE svg PUBLIC "-//W3C//DTD SVG 1.1//EN" "http://www.w3.org/Graphics/SVG/1.1/DTD/svg11.dtd">
<svg xmlns="http://www.w3.org/2000/svg" version="1.1" viewBox="0.00 0.00 696.00 696.00">
<clipPath id="clipping-path-0">
<path d="
  M 0.00 0.00
  L 696.00 0.00
  L 696.00 696.00
  L 0.00 696.00
  L 0.00 0.00
  Z"/>
</clipPath>
<g stroke-width="2.00" fill="none" stroke-linecap="butt" clip-path="url(#clipping-path-0)">
<path stroke="#c693cc" vector-effect="non-scaling-stroke" d="
  M 224.28 518.29
  L 226.37 519.52"
/>
<path stroke="#808080" vector-effect="non-scaling-stroke" d="
  M 226.37 519.52
  Q 231.40 534.65 244.35 542.85
  Q 248.19 545.28 253.15 546.25
  Q 261.71 547.92 270.48 547.68"
/>
<path stroke="#c693cc" vector-effect="non-scaling-stroke" d="
  M 270.48 547.68
  Q 272.27 548.88 273.02 550.17"
/>
<path stroke="#808080" vector-effect="non-scaling-stroke" d="
  M 273.02 550.17
  Q 273.88 554.64 277.53 563.50
  Q 284.95 581.52 302.02 587.19
  C 311.94 590.49 320.02 585.91 328.77 580.41
  Q 335.73 576.03 341.72 570.47
  A 1.73 1.73 0.0 0 1 344.39 570.86
  C 354.50 587.95 373.34 594.81 392.36 590.08
  C 405.10 586.92 418.24 575.70 421.07 562.50
  Q 421.22 561.79 421.87 562.12
  L 423.53 562.96
  Q 423.99 563.19 424.50 563.23
  Q 432.97 563.89 441.18 561.80
  C 443.93 561.10 446.63 560.71 448.80 561.95
  C 452.54 564.08 456.23 569.22 461.44 571.49
  C 465.39 573.20 470.05 573.77 474.52 574.34
  Q 494.58 576.88 514.61 579.74
  Q 519.15 580.39 521.80 579.47
  C 526.77 577.73 531.12 571.40 527.20 566.54
  Q 516.08 552.75 504.80 538.01
  A 0.80 0.80 0.0 0 1 505.48 536.72
  C 507.56 536.83 509.73 537.91 511.63 538.20
  Q 524.78 540.17 549.51 542.55
  C 552.35 542.82 555.98 544.81 559.29 544.08
  C 569.29 541.87 569.94 520.56 569.38 512.24
  C 568.48 498.79 567.07 485.42 566.77 471.94
  Q 566.76 471.40 567.30 471.40
  Q 585.91 471.45 604.48 471.25
  C 618.51 471.11 616.23 457.03 613.85 447.51
  C 610.87 435.58 609.10 423.41 606.75 411.36
  Q 605.55 405.16 603.26 398.87
  C 596.97 381.58 591.79 363.74 584.71 346.78
  Q 583.39 343.62 583.50 340.61
  A 1.69 1.68 -16.0 0 1 584.25 339.27
  C 595.08 332.02 604.61 323.29 615.34 315.95
  Q 618.37 313.88 620.69 312.01
  C 623.82 309.49 627.24 307.38 629.36 303.83
  A 1.19 1.18 -37.8 0 0 629.48 302.90
  C 628.46 299.45 624.28 296.19 621.35 294.39
  C 617.14 291.82 611.50 291.17 607.00 289.13
  Q 597.62 284.89 588.62 279.90
  Q 580.59 275.45 573.09 269.52
  Q 566.98 264.69 558.56 257.67
  Q 551.96 252.17 548.75 245.45
  A 1.27 1.25 -47.1 0 1 548.72 244.43
  Q 550.32 240.35 549.88 237.75
  C 548.17 227.42 548.17 215.68 545.53 203.51
  Q 542.85 191.12 533.07 178.20
  C 526.90 170.05 519.54 180.31 517.08 185.60
  Q 510.39 200.02 497.96 210.16
  A 0.72 0.71 -41.8 0 1 497.01 210.11
  C 495.48 208.57 494.09 207.11 492.83 205.16
  C 487.16 196.35 479.66 192.64 470.96 188.57
  A 2.86 2.86 0.0 0 1 469.32 186.03
  C 469.23 178.60 469.68 168.35 466.21 161.82
  Q 462.75 155.34 455.34 145.19
  Q 448.29 135.53 432.95 122.05
  C 427.44 117.20 417.68 131.06 414.57 134.89
  C 408.54 142.32 399.51 145.31 390.35 147.05
  Q 387.48 147.59 384.65 146.90
  C 364.82 142.03 348.78 124.68 333.58 109.14
  Q 332.41 107.95 330.02 107.57
  Q 329.56 107.49 329.19 107.79
  C 318.22 116.60 319.98 127.03 319.44 138.90
  A 0.72 0.71 88.7 0 1 318.79 139.59
  Q 315.47 139.90 312.70 138.02
  A 1.11 1.10 52.3 0 0 311.72 137.89
  Q 302.03 141.19 293.97 147.46
  A 0.62 0.62 0.0 0 1 292.97 146.99
  C 292.70 140.36 292.02 135.13 285.28 132.36
  C 281.79 130.93 278.35 133.67 276.07 136.08
  Q 266.09 146.67 259.96 159.18
  Q 258.33 162.50 256.67 165.83
  A 1.36 1.30 -87.5 0 1 256.01 166.46
  Q 254.47 167.13 253.50 167.18
  Q 234.70 168.30 216.01 166.40
  Q 208.90 165.68 202.78 163.98
  C 194.51 161.68 187.52 158.06 180.40 155.14
  C 170.78 151.20 162.57 154.74 162.19 166.31
  Q 161.97 172.90 162.24 175.51
  Q 164.03 192.76 165.74 210.04
  C 165.97 212.34 166.76 214.02 167.46 216.29
  A 1.06 1.05 -36.9 0 1 167.33 217.19
  Q 164.34 221.65 161.72 223.49
  Q 148.12 233.03 134.58 242.66
  C 123.59 250.47 117.27 254.52 110.79 262.02
  Q 91.95 283.83 78.91 312.43
  Q 76.57 317.58 79.24 321.68
  C 80.78 324.05 85.30 327.05 87.69 328.60
  C 96.24 334.16 104.71 340.27 113.60 345.07
  Q 118.87 347.91 124.25 350.59
  Q 124.72 350.82 124.27 351.09
  Q 118.80 354.39 114.49 354.05
  Q 106.28 353.40 85.01 349.29
  C 79.07 348.15 67.18 351.98 71.38 360.39
  Q 77.92 373.47 85.75 382.25
  Q 107.43 406.58 136.61 420.68
  A 1.78 1.77 -66.6 0 1 137.49 422.93
  C 130.92 439.53 125.48 456.58 127.67 474.63
  Q 127.98 477.19 128.82 482.85
  C 129.68 488.63 130.57 496.43 136.93 498.01
  Q 139.48 498.65 145.49 497.32
  Q 164.66 493.10 186.01 490.73
  C 189.85 490.30 199.37 488.54 200.65 493.47
  C 203.45 504.26 213.24 516.73 224.28 518.29"
/>
<path stroke="#47134d" vector-effect="non-scaling-stroke" d="
  M 273.02 550.17
  Q 273.04 547.87 270.48 547.68"
/>
<path stroke="#47134d" vector-effect="non-scaling-stroke" d="
  M 226.37 519.52
  Q 226.95 518.45 224.28 518.29"
/>
<path stroke="#0f0b39" vector-effect="non-scaling-stroke" d="
  M 318.82 207.79
  Q 320.40 216.59 325.39 224.22"
/>
<path stroke="#181056" vector-effect="non-scaling-stroke" d="
  M 325.39 224.22
  Q 317.33 224.37 309.50 224.33
  Q 306.65 224.32 305.17 224.95
  Q 290.43 231.23 275.48 237.01
  C 272.88 238.01 270.40 239.39 267.95 240.68
  C 263.44 243.06 260.04 247.29 256.58 250.88
  A 2.22 2.22 0.0 0 1 254.08 251.37
  Q 248.53 248.90 243.69 245.09"
/>
<path stroke="#0f0b39" vector-effect="non-scaling-stroke" d="
  M 243.69 245.09
  L 243.89 224.52"
/>
<path stroke="#181056" vector-effect="non-scaling-stroke" d="
  M 243.89 224.52
  Q 243.45 219.71 244.53 213.76
  Q 247.26 198.79 250.95 184.38
  A 0.71 0.70 -82.9 0 0 250.27 183.50
  C 238.25 183.53 226.09 184.19 214.30 183.33
  C 202.68 182.48 191.11 177.43 180.23 173.97
  A 1.31 1.31 0.0 0 0 178.54 175.41
  Q 180.55 189.45 181.42 202.00
  Q 182.01 210.51 185.78 218.04
  C 188.02 222.50 184.12 226.07 180.86 228.59
  Q 157.66 246.56 133.49 263.21
  C 127.25 267.51 122.46 271.34 118.59 276.81
  Q 111.53 286.77 103.74 300.86"
/>
<path stroke="#2f1344" vector-effect="non-scaling-stroke" d="
  M 103.74 300.86
  Q 101.02 305.78 98.87 310.53
  C 97.70 313.12 95.70 315.04 99.25 317.27
  C 108.24 322.91 117.58 329.24 126.62 333.54
  Q 135.54 337.78 144.86 341.08
  C 164.50 348.03 148.66 360.58 139.50 364.80
  Q 127.98 370.12 115.41 370.68
  C 110.63 370.90 105.81 369.67 101.01 368.72
  Q 98.93 368.31 97.70 368.91
  A 1.73 1.73 0.0 0 0 97.05 371.48
  Q 103.38 380.18 111.70 385.99"
/>
<path stroke="#47134d" vector-effect="non-scaling-stroke" d="
  M 111.70 385.99
  C 121.85 393.62 130.21 398.15 142.13 404.24
  C 146.41 406.43 157.05 412.83 156.94 418.14
  Q 156.86 421.79 154.48 426.76
  Q 148.82 438.59 145.92 451.51"
/>
<path stroke="#561726" vector-effect="non-scaling-stroke" d="
  M 145.92 451.51
  Q 144.20 458.35 143.81 465.74
  C 143.69 468.24 143.90 476.48 147.08 479.07
  Q 147.53 479.43 148.09 479.32
  Q 172.08 474.62 196.51 473.66
  Q 199.95 473.52 203.54 470.05
  C 204.62 469.00 206.15 468.02 207.42 468.82
  C 212.60 472.07 214.38 479.70 215.86 486.92
  C 216.33 489.20 220.44 500.62 224.48 501.84
  A 1.72 1.72 0.0 0 0 226.69 500.32
  C 226.98 496.19 227.68 492.93 230.29 489.50
  Q 237.99 479.39 248.37 472.20
  Q 251.77 469.85 259.66 466.14
  Q 268.56 461.97 276.88 456.69
  C 279.26 455.18 281.25 454.92 283.94 454.34
  Q 284.57 454.20 284.20 453.68
  C 280.89 448.90 276.43 447.23 272.06 444.06"
/>
<path stroke="#2d0120" vector-effect="non-scaling-stroke" d="
  M 272.06 444.06
  C 271.00 442.43 269.70 441.13 268.65 439.37
  Q 265.27 433.73 261.29 430.54"
/>
<path stroke="#47134d" vector-effect="non-scaling-stroke" d="
  M 261.29 430.54
  Q 257.58 427.62 257.14 424.92"
/>
<path stroke="#1b1629" vector-effect="non-scaling-stroke" d="
  M 257.14 424.92
  Q 261.55 424.74 265.88 426.60
  Q 268.30 427.64 270.33 427.78
  Q 288.82 429.07 305.80 432.19
  Q 307.24 432.46 308.62 433.54
  Q 309.25 434.03 308.45 434.02
  L 305.51 433.98"
/>
<path stroke="#392222" vector-effect="non-scaling-stroke" d="
  M 305.51 433.98
  Q 296.33 434.10 287.34 432.79
  A 0.68 0.68 0.0 0 0 286.69 433.86
  Q 288.28 436.08 290.61 437.66
  C 303.48 446.39 318.33 454.14 333.45 457.98
  C 349.08 461.96 366.54 465.34 382.55 461.79
  C 387.11 460.77 392.36 460.99 395.79 457.06
  Q 396.10 456.71 395.77 456.38
  L 381.60 442.28"
/>
<path stroke="#1b1629" vector-effect="non-scaling-stroke" d="
  M 381.60 442.28
  Q 392.44 440.18 403.74 442.87"
/>
<path stroke="#47134d" vector-effect="non-scaling-stroke" d="
  M 403.74 442.87
  L 419.00 450.82"
/>
<path stroke="#2d0120" vector-effect="non-scaling-stroke" d="
  M 419.00 450.82
  C 420.70 453.54 422.21 455.88 424.58 458.19
  C 427.79 461.31 431.39 465.66 435.16 467.98
  Q 437.63 469.50 436.20 470.84"
/>
<path stroke="#561726" vector-effect="non-scaling-stroke" d="
  M 436.20 470.84
  Q 434.29 471.07 433.84 472.08
  Q 433.62 472.55 433.99 472.92
  Q 444.22 483.11 454.31 493.44
  Q 463.03 502.38 466.95 514.27
  C 471.12 526.93 468.30 539.80 461.71 551.26
  Q 461.43 551.74 461.90 552.03
  C 469.35 556.84 478.58 558.51 487.48 559.46
  C 491.31 559.87 496.41 561.44 501.25 560.85
  Q 502.00 560.76 501.56 560.16
  Q 491.55 546.37 481.04 532.96
  C 477.88 528.94 481.73 523.60 485.39 521.68
  C 488.92 519.83 495.57 519.69 499.45 520.07
  Q 512.01 521.30 543.25 525.48
  Q 547.66 526.07 552.25 525.41
  Q 552.79 525.34 552.99 524.83
  Q 553.71 523.00 553.51 521.04"
/>
<path stroke="#55173e" vector-effect="non-scaling-stroke" d="
  M 553.51 521.04
  Q 553.89 516.98 553.28 511.00
  Q 552.06 499.00 550.65 487.01
  C 550.39 484.76 550.51 482.33 550.39 479.95"
/>
<path stroke="#47134d" vector-effect="non-scaling-stroke" d="
  M 550.39 479.95
  L 550.30 467.26"
/>
<path stroke="#2f1344" vector-effect="non-scaling-stroke" d="
  M 550.30 467.26
  L 550.42 462.55
  Q 550.43 462.01 550.81 461.63
  L 556.18 456.19
  Q 557.23 455.12 558.74 455.11
  L 594.46 454.96
  A 2.46 2.45 84.1 0 0 596.85 452.01
  C 595.62 445.99 594.98 440.32 593.69 433.80
  Q 593.07 430.70 592.46 426.27
  Q 591.53 419.52 587.73 405.45"
/>
<path stroke="#181056" vector-effect="non-scaling-stroke" d="
  M 587.73 405.45
  Q 579.10 381.77 570.78 358.06
  C 569.07 353.18 566.02 346.93 564.34 340.99
  C 563.18 336.88 567.06 333.34 570.08 330.84
  Q 580.49 322.23 595.83 310.30
  Q 598.16 308.49 599.31 306.83
  Q 600.42 305.24 598.70 304.34
  C 590.51 300.05 581.53 295.91 574.26 291.01
  C 565.36 285.01 558.33 276.77 550.78 269.48
  Q 549.34 268.09 547.91 267.52
  A 1.24 1.23 20.1 0 0 546.27 268.28
  Q 544.00 275.18 541.80 282.25
  Q 539.82 288.62 534.71 292.87
  A 1.10 1.08 69.4 0 0 534.32 293.75
  C 534.44 296.83 534.44 298.77 532.20 301.15
  Q 530.02 303.48 527.97 305.32
  A 2.78 2.78 0.0 0 1 524.19 305.25
  Q 518.83 300.09 514.36 295.26
  C 512.43 293.17 512.02 290.59 510.05 288.49
  Q 504.27 282.34 498.14 276.51
  Q 496.42 274.88 493.09 272.90
  Q 489.28 270.64 486.22 267.38
  C 484.16 265.18 481.10 264.47 478.73 262.29
  Q 474.63 258.51 469.80 255.74
  C 467.90 254.66 466.61 253.01 464.61 252.00
  Q 461.59 250.45 457.97 248.21"
/>
<path stroke="#0f0b39" vector-effect="non-scaling-stroke" d="
  M 457.97 248.21
  Q 459.05 240.87 455.52 236.03
  Q 455.24 235.65 455.28 235.18
  C 455.46 232.98 459.70 231.39 461.32 230.19
  C 462.77 229.12 463.94 229.13 465.65 228.96"
/>
<path stroke="#181056" vector-effect="non-scaling-stroke" d="
  M 465.65 228.96
  L 483.12 222.68
  Q 485.60 221.78 484.21 219.54
  Q 481.48 215.17 477.18 211.19
  C 470.21 204.76 458.78 202.47 453.97 193.65
  Q 452.97 191.81 453.01 188.97
  C 453.13 181.19 452.78 172.23 449.14 165.17
  Q 442.89 153.06 432.95 143.54
  Q 431.13 141.80 429.57 143.31
  C 424.58 148.16 419.61 153.19 413.83 156.80
  Q 407.88 160.52 401.49 163.46
  C 398.21 164.97 397.65 167.26 393.36 166.68
  Q 374.28 164.12 358.73 152.83
  Q 347.33 144.56 337.25 134.77
  A 0.50 0.50 0.0 0 0 336.41 135.03
  C 335.02 141.61 341.58 147.08 337.64 153.39
  Q 333.56 159.92 326.10 158.71
  Q 318.67 157.51 311.23 156.45
  C 306.66 155.80 302.14 161.27 299.37 164.29
  A 1.99 1.99 0.0 0 0 298.96 166.30
  Q 302.00 175.07 305.67 183.79
  C 308.12 189.64 311.93 194.80 315.38 200.22
  C 316.81 202.46 317.55 205.15 318.82 207.79"
/>
<path stroke="#271b8f" vector-effect="non-scaling-stroke" d="
  M 465.65 228.96
  Q 461.90 228.33 458.26 229.66
  A 0.99 0.99 0.0 0 1 457.25 229.44
  L 455.50 227.75
  A 1.49 1.44 68.2 0 0 454.61 227.35
  C 445.97 226.66 437.40 219.85 432.11 230.68
  C 429.85 235.32 435.22 239.01 438.83 240.37
  Q 449.11 244.24 457.97 248.21"
/>
<path stroke="#46239a" vector-effect="non-scaling-stroke" d="
  M 587.73 405.45
  C 585.61 405.94 583.51 406.85 581.70 407.19
  Q 574.44 408.58 567.25 410.39
  C 559.96 412.24 553.40 411.29 546.44 409.23
  C 544.11 408.54 541.80 407.14 539.32 406.29
  Q 536.52 405.33 534.62 403.98
  Q 531.86 402.03 529.07 400.16
  Q 528.69 399.91 528.23 399.89
  Q 527.04 399.85 526.58 398.87
  Q 526.37 398.44 525.98 398.17
  Q 523.65 396.59 519.85 394.61
  Q 514.22 391.68 510.51 385.19"
/>
<path stroke="#1b107d" vector-effect="non-scaling-stroke" d="
  M 510.51 385.19
  L 521.77 373.69"
/>
<path stroke="#271b8f" vector-effect="non-scaling-stroke" d="
  M 521.77 373.69
  Q 530.37 365.09 537.52 350.75
  Q 542.65 340.47 547.76 330.16
  C 549.00 327.66 550.50 325.89 552.26 323.84
  A 2.98 2.98 0.0 0 0 552.25 319.93
  C 550.13 317.49 547.75 314.17 544.19 313.82
  Q 541.96 313.60 540.46 312.87
  C 535.62 310.52 530.90 311.68 527.02 310.89
  Q 521.29 309.73 511.72 306.83
  C 500.12 303.31 489.26 297.14 478.67 291.30
  C 475.48 289.54 472.36 284.96 468.59 288.33
  C 461.10 295.05 462.66 300.40 470.75 305.46
  C 482.54 312.85 498.12 321.67 512.70 324.89
  C 516.31 325.69 522.15 327.88 527.38 327.43
  A 1.36 1.36 0.0 0 1 528.76 329.30
  Q 523.11 343.00 515.56 355.57
  Q 510.45 364.08 500.95 373.04"
/>
<path stroke="#1b107d" vector-effect="non-scaling-stroke" d="
  M 500.95 373.04
  Q 494.48 374.80 489.97 382.67"
/>
<path stroke="#46239a" vector-effect="non-scaling-stroke" d="
  M 489.97 382.67
  Q 485.94 385.27 479.14 386.94
  Q 472.14 388.66 465.00 389.61
  Q 458.12 390.53 437.34 389.66
  C 434.42 389.54 431.95 388.72 429.20 387.91
  C 426.57 387.14 423.97 387.61 421.18 386.79
  Q 417.38 385.66 417.28 385.64
  Q 409.75 383.87 402.60 380.90
  Q 400.44 380.00 396.69 378.90
  Q 393.66 378.02 390.86 376.61
  C 389.59 375.97 389.05 374.71 387.63 374.13
  C 382.96 372.21 378.68 369.30 374.33 366.75
  Q 372.98 365.95 371.92 364.93
  C 370.52 363.56 369.24 361.71 366.93 362.00"
/>
<path stroke="#181056" vector-effect="non-scaling-stroke" d="
  M 366.93 362.00
  Q 359.80 350.27 346.84 341.90
  Q 340.20 337.61 337.48 329.79"
/>
<path stroke="#271b8f" vector-effect="non-scaling-stroke" d="
  M 337.48 329.79
  Q 338.25 326.74 338.76 318.74
  C 338.93 316.05 340.37 312.13 340.88 308.73
  Q 342.94 295.05 350.19 283.35
  C 352.16 280.17 356.87 274.54 357.60 270.24
  C 358.25 266.46 355.06 263.38 352.36 260.94
  Q 351.15 259.85 350.17 259.67
  C 345.88 258.85 338.34 270.94 336.07 274.37
  Q 333.69 277.97 331.86 282.70
  C 329.69 288.32 326.36 294.35 325.55 300.31
  Q 324.82 305.69 323.18 310.82
  Q 322.51 312.93 322.42 315.21
  Q 322.34 317.44 322.06 319.69"
/>
<path stroke="#181056" vector-effect="non-scaling-stroke" d="
  M 322.06 319.69
  C 314.41 316.94 306.56 313.66 298.69 312.40
  C 293.00 311.48 287.52 310.30 281.83 311.12
  Q 262.83 313.86 246.57 323.82"
/>
<path stroke="#271b8f" vector-effect="non-scaling-stroke" d="
  M 246.57 323.82
  Q 242.31 323.65 241.79 320.78
  Q 240.54 313.92 235.52 309.99
  C 233.28 308.24 230.78 309.56 228.43 307.81
  Q 226.04 306.05 222.89 302.87
  C 217.79 297.74 208.83 290.12 211.41 285.36
  Q 212.27 283.79 215.67 281.87
  Q 220.96 278.88 225.16 274.44
  C 228.08 271.34 228.22 267.68 226.69 264.00
  C 224.09 257.73 219.65 251.69 218.92 243.07
  C 218.66 240.06 217.72 237.82 216.61 235.14
  A 1.27 1.27 0.0 0 1 218.16 233.44
  Q 231.73 237.57 243.69 245.09"
/>
<path stroke="#271b8f" vector-effect="non-scaling-stroke" d="
  M 325.39 224.22
  C 334.25 224.36 342.02 225.01 346.16 217.62
  C 347.24 215.69 346.43 214.54 345.13 213.12
  C 342.84 210.62 341.26 208.55 337.63 208.44
  Q 328.05 208.15 318.82 207.79"
/>
<path stroke="#32136b" vector-effect="non-scaling-stroke" d="
  M 489.97 382.67
  Q 493.52 392.16 497.18 402.07
  Q 498.60 405.90 498.86 409.66
  Q 499.46 418.11 499.11 425.84"
/>
<path stroke="#5b1363" vector-effect="non-scaling-stroke" d="
  M 499.11 425.84
  L 498.74 429.51"
/>
<path stroke="#752690" vector-effect="non-scaling-stroke" d="
  M 498.74 429.51
  Q 489.84 426.84 481.25 428.36
  Q 479.51 428.67 479.60 430.44"
/>
<path stroke="#4a296d" vector-effect="non-scaling-stroke" d="
  M 479.60 430.44
  Q 471.36 429.70 463.02 431.64
  Q 458.75 432.64 458.76 436.50
  A 2.01 2.01 0.0 0 1 456.90 438.50
  C 450.15 439.02 443.61 439.33 436.99 437.33
  C 429.50 435.07 420.12 436.12 414.25 435.59
  C 412.18 435.40 409.55 434.15 407.02 433.97
  Q 401.77 433.60 396.51 433.16
  C 394.96 433.03 394.04 432.12 393.22 430.96"
/>
<path stroke="#32136b" vector-effect="non-scaling-stroke" d="
  M 510.51 385.19
  Q 508.37 387.79 510.18 390.79
  Q 514.83 398.52 515.03 406.99
  Q 515.25 416.12 515.15 425.21"
/>
<path stroke="#300147" vector-effect="non-scaling-stroke" d="
  M 515.15 425.21
  L 514.96 429.51
  A 1.02 1.02 0.0 0 1 513.64 430.44
  L 499.11 425.84"
/>
<path stroke="#752690" vector-effect="non-scaling-stroke" d="
  M 550.30 467.26
  Q 534.06 459.86 519.80 449.96
  Q 518.66 449.16 517.24 447.14
  Q 516.59 446.21 515.19 446.81"
/>
<path stroke="#5b1363" vector-effect="non-scaling-stroke" d="
  M 515.19 446.81
  L 515.15 425.21"
/>
<path stroke="#0f0b39" vector-effect="non-scaling-stroke" d="
  M 337.48 329.79
  C 334.66 326.55 330.31 324.53 327.32 322.54
  Q 324.57 320.71 322.06 319.69"
/>
<path stroke="#0f0b39" vector-effect="non-scaling-stroke" d="
  M 246.57 323.82
  Q 233.12 333.22 230.31 349.35"
/>
<path stroke="#271b8f" vector-effect="non-scaling-stroke" d="
  M 230.31 349.35
  Q 230.23 341.53 230.29 333.79
  C 230.37 324.72 227.35 325.04 219.15 324.93
  Q 207.84 324.77 196.65 324.90
  Q 194.39 324.92 194.53 327.17
  C 194.60 328.29 194.65 329.94 195.17 331.01
  Q 198.19 337.27 200.51 344.15"
/>
<path stroke="#130b60" vector-effect="non-scaling-stroke" d="
  M 200.51 344.15
  Q 198.34 342.69 197.06 340.27
  A 1.54 1.52 -1.7 0 0 196.37 339.63
  Q 192.16 337.67 187.50 337.79
  Q 183.17 337.90 179.91 335.05
  A 0.41 0.41 0.0 0 0 179.30 335.57
  Q 179.55 335.95 179.12 336.55"
/>
<path stroke="#130b60" vector-effect="non-scaling-stroke" d="
  M 521.77 373.69
  Q 519.84 369.43 513.96 371.20
  Q 506.43 373.48 500.95 373.04"
/>
<path stroke="#2f1344" vector-effect="non-scaling-stroke" d="
  M 366.93 362.00
  Q 372.53 372.31 377.18 382.94
  C 381.08 391.83 383.03 401.96 385.65 411.54
  Q 388.87 423.34 393.22 430.96"
/>
<path stroke="#1b1629" vector-effect="non-scaling-stroke" d="
  M 393.22 430.96
  Q 393.34 432.96 391.63 433.12
  Q 386.07 433.61 380.34 433.17
  A 0.75 0.75 0.0 0 1 379.64 432.35
  C 380.23 426.36 378.94 409.94 370.69 408.89
  Q 368.59 408.63 366.66 408.31"
/>
<path stroke="#392222" vector-effect="non-scaling-stroke" d="
  M 366.66 408.31
  Q 366.72 406.88 366.57 406.28
  Q 362.14 388.61 354.33 372.15
  Q 353.85 371.14 353.33 370.88
  Q 352.46 370.45 352.42 371.42
  Q 352.07 379.76 352.44 388.01
  Q 352.72 394.20 351.25 397.78
  Q 349.06 403.11 343.31 408.81
  Q 336.05 416.01 328.25 424.03"
/>
<path stroke="#1b1629" vector-effect="non-scaling-stroke" d="
  M 328.25 424.03
  Q 319.83 426.76 308.19 423.42"
/>
<path stroke="#040027" vector-effect="non-scaling-stroke" d="
  M 308.19 423.42
  Q 310.36 421.78 312.94 421.14
  Q 317.15 420.10 317.90 419.77
  Q 323.27 417.46 325.39 415.37
  C 331.46 409.35 338.07 404.97 336.30 395.04
  C 335.78 392.08 335.41 390.41 333.22 388.54
  C 327.70 383.81 323.41 382.75 316.97 380.40
  C 308.12 377.17 299.70 380.43 291.52 381.26
  Q 285.37 381.87 282.62 382.77
  Q 271.21 386.51 263.51 395.45"
/>
<path stroke="#1b1629" vector-effect="non-scaling-stroke" d="
  M 263.51 395.45
  Q 252.45 394.97 241.75 395.30
  Q 239.58 395.36 238.37 393.32"
/>
<path stroke="#2f1344" vector-effect="non-scaling-stroke" d="
  M 238.37 393.32
  C 235.58 386.43 234.12 378.58 232.63 372.30
  Q 231.54 367.69 230.93 363.27"
/>
<path stroke="#181056" vector-effect="non-scaling-stroke" d="
  M 230.93 363.27
  Q 229.84 355.96 230.31 349.35"
/>
<path stroke="#73146c" vector-effect="non-scaling-stroke" d="
  M 515.19 446.81
  L 513.30 456.94"
/>
<path stroke="#82175e" vector-effect="non-scaling-stroke" d="
  M 513.30 456.94
  Q 510.78 465.47 506.04 472.71
  C 503.34 476.82 499.47 480.43 495.90 484.13"
/>
<path stroke="#821746" vector-effect="non-scaling-stroke" d="
  M 495.90 484.13
  C 492.94 487.76 489.16 490.36 485.01 492.29
  C 479.92 494.65 474.46 490.68 470.53 487.45
  Q 464.45 482.46 456.21 477.28
  Q 446.43 471.13 436.20 470.84"
/>
<path stroke="#73146c" vector-effect="non-scaling-stroke" d="
  M 419.00 450.82
  Q 421.68 451.40 424.37 451.88
  C 430.04 452.89 437.53 457.02 443.00 453.17
  A 2.36 2.35 38.3 0 1 445.27 452.91
  C 456.96 457.77 467.29 465.53 477.84 472.88
  C 482.35 476.02 485.24 473.58 488.09 469.64
  Q 495.76 459.02 498.74 446.25
  Q 499.54 442.83 498.74 429.51"
/>
<path stroke="#622976" vector-effect="non-scaling-stroke" d="
  M 479.60 430.44
  L 481.91 433.98
  Q 482.19 434.42 481.99 434.90
  C 479.69 440.40 474.41 438.81 469.71 439.05
  C 464.96 439.28 463.67 445.30 459.00 446.20
  C 454.13 447.14 448.55 447.14 443.01 446.50
  Q 428.29 444.80 413.49 443.92
  Q 411.91 443.83 406.57 441.77
  Q 405.67 441.42 404.97 441.48
  Q 403.27 441.64 403.74 442.87"
/>
<path stroke="#54384b" vector-effect="non-scaling-stroke" d="
  M 381.60 442.28
  Q 379.51 442.28 376.57 441.36
  C 373.13 440.28 371.23 438.37 371.24 434.75
  Q 371.24 429.88 371.24 424.99
  C 371.23 421.27 370.76 419.54 366.99 418.74
  C 361.26 417.52 349.90 413.85 347.40 420.44
  C 345.85 424.52 343.25 433.40 338.25 433.38
  Q 325.55 433.32 312.87 434.09
  Q 308.25 434.37 305.51 433.98"
/>
<path stroke="#622976" vector-effect="non-scaling-stroke" d="
  M 257.14 424.92
  L 254.46 420.99"
/>
<path stroke="#1b1629" vector-effect="non-scaling-stroke" d="
  M 254.46 420.99
  C 254.51 416.14 253.41 408.74 256.54 405.00
  A 1.00 1.00 0.0 0 0 255.59 403.37
  Q 250.27 404.34 244.91 403.58
  Q 244.42 403.51 244.09 403.89
  Q 243.70 404.35 244.20 405.01"
/>
<path stroke="#622976" vector-effect="non-scaling-stroke" d="
  M 244.20 405.01
  L 238.98 403.41"
/>
<path stroke="#9c2a8b" vector-effect="non-scaling-stroke" d="
  M 550.39 479.95
  Q 531.03 474.95 517.28 458.22
  Q 515.92 456.56 513.30 456.94"
/>
<path stroke="#271b8f" vector-effect="non-scaling-stroke" d="
  M 243.89 224.52
  Q 241.58 225.63 238.98 224.49
  C 230.75 220.90 224.21 217.40 217.17 212.66
  C 214.52 210.88 209.05 207.25 205.96 209.17
  C 203.13 210.94 200.93 213.96 200.51 217.54
  Q 199.37 227.17 200.55 236.84
  C 200.96 240.18 202.74 243.55 203.02 247.39
  Q 203.27 250.81 203.89 252.74
  Q 205.85 258.81 207.83 264.78
  A 3.25 3.25 0.0 0 1 206.85 268.28
  C 204.21 270.53 202.39 272.38 200.47 275.59
  Q 197.29 280.94 192.74 285.22
  C 190.02 287.77 188.23 290.02 191.39 293.12
  Q 198.69 300.29 205.60 307.28
  A 0.74 0.74 0.0 0 1 205.08 308.54
  Q 195.38 308.64 186.24 308.64
  Q 181.05 308.64 178.08 312.52
  C 174.80 316.80 176.20 324.08 177.82 328.88
  C 178.70 331.48 178.66 333.92 179.12 336.55"
/>
<path stroke="#1b107d" vector-effect="non-scaling-stroke" d="
  M 179.12 336.55
  L 181.43 341.90"
/>
<path stroke="#46239a" vector-effect="non-scaling-stroke" d="
  M 181.43 341.90
  Q 177.89 344.89 171.06 341.21
  A 1.86 1.80 -30.9 0 0 170.11 340.99
  Q 165.72 341.16 162.93 339.43
  Q 160.39 337.86 158.11 337.17
  Q 154.57 336.09 153.55 335.56
  Q 147.16 332.25 145.15 330.84
  Q 137.36 325.41 133.04 322.56
  C 127.50 318.91 122.97 315.61 117.80 312.31
  Q 113.43 309.52 110.48 306.96
  Q 107.04 303.97 103.74 300.86"
/>
<path stroke="#46239a" vector-effect="non-scaling-stroke" d="
  M 230.93 363.27
  C 228.58 362.98 226.02 363.24 224.02 362.90
  Q 219.47 362.14 215.21 360.33"
/>
<path stroke="#1b107d" vector-effect="non-scaling-stroke" d="
  M 215.21 360.33
  Q 206.94 352.83 200.51 344.15"
/>
<path stroke="#32136b" vector-effect="non-scaling-stroke" d="
  M 215.21 360.33
  Q 217.59 365.50 216.18 370.00
  Q 210.80 387.17 206.21 403.30"
/>
<path stroke="#300147" vector-effect="non-scaling-stroke" d="
  M 206.21 403.30
  Q 201.98 399.14 193.53 403.90
  Q 189.90 405.95 188.35 407.45"
/>
<path stroke="#4a1374" vector-effect="non-scaling-stroke" d="
  M 188.35 407.45
  Q 190.41 395.93 194.08 385.99"
/>
<path stroke="#54384b" vector-effect="non-scaling-stroke" d="
  M 366.66 408.31
  Q 357.32 409.07 347.82 408.90
  C 346.61 408.88 345.00 409.39 344.12 410.27
  Q 339.65 414.76 337.17 420.60
  Q 336.23 422.83 334.85 423.51
  Q 332.17 424.84 328.25 424.03"
/>
<path stroke="#4a296d" vector-effect="non-scaling-stroke" d="
  M 238.37 393.32
  C 237.55 396.21 233.53 395.99 231.42 397.68
  A 1.09 1.07 69.1 0 0 231.02 398.60
  C 231.25 401.40 232.84 403.11 235.74 403.29
  Q 237.58 403.41 238.98 403.41"
/>
<path stroke="#752690" vector-effect="non-scaling-stroke" d="
  M 238.98 403.41
  Q 230.90 413.78 218.79 415.49
  Q 216.37 415.84 214.24 414.77
  Q 209.55 412.42 205.14 408.08"
/>
<path stroke="#5b1363" vector-effect="non-scaling-stroke" d="
  M 205.14 408.08
  L 206.21 403.30"
/>
<path stroke="#1f1650" vector-effect="non-scaling-stroke" d="
  M 308.19 423.42
  Q 297.82 422.58 287.08 420.74
  Q 282.86 420.01 278.38 419.73
  C 272.98 419.38 267.34 419.33 263.18 415.92
  Q 262.78 415.59 262.78 415.08
  Q 262.85 409.74 264.86 404.02
  Q 266.21 400.17 263.51 395.45"
/>
<path stroke="#ab2d64" vector-effect="non-scaling-stroke" d="
  M 553.51 521.04
  Q 551.62 520.32 550.23 518.51
  Q 548.47 516.22 547.55 515.51
  C 543.22 512.12 539.45 509.61 533.91 507.89
  Q 524.73 505.04 515.79 501.54
  Q 513.75 500.75 511.54 499.20
  Q 509.53 497.80 507.40 496.57
  Q 505.03 495.19 502.81 493.11
  Q 500.40 490.84 496.60 487.88
  Q 494.91 486.56 495.90 484.13"
/>
<path stroke="#47134d" vector-effect="non-scaling-stroke" d="
  M 254.46 420.99
  C 249.67 416.84 247.15 410.40 244.20 405.01"
/>
<path stroke="#32136b" vector-effect="non-scaling-stroke" d="
  M 181.43 341.90
  Q 183.99 346.70 187.13 352.28
  C 190.21 357.75 194.78 361.57 199.41 365.60
  Q 199.79 365.94 199.63 366.42
  Q 197.84 371.63 196.13 376.74
  Q 195.57 378.42 195.21 381.36
  Q 194.91 383.85 194.08 385.99"
/>
<path stroke="#752690" vector-effect="non-scaling-stroke" d="
  M 194.08 385.99
  Q 194.10 384.30 192.76 384.26
  C 191.77 384.22 190.46 384.76 189.51 385.39
  Q 181.30 390.81 175.38 391.89
  C 169.52 392.96 163.51 394.92 157.95 395.17
  Q 135.92 396.19 116.67 385.21
  C 114.87 384.19 113.89 382.28 110.98 382.62
  Q 110.31 382.69 110.31 383.37
  L 110.31 384.14
  Q 110.31 384.65 110.81 384.73
  Q 111.56 384.85 111.70 385.99"
/>
<path stroke="#73146c" vector-effect="non-scaling-stroke" d="
  M 188.35 407.45
  Q 185.97 423.46 186.91 440.90"
/>
<path stroke="#9c2a73" vector-effect="non-scaling-stroke" d="
  M 186.91 440.90
  Q 173.93 436.69 160.95 441.25
  C 159.58 441.73 158.78 442.75 157.25 443.15
  Q 154.90 443.76 154.38 444.04
  Q 152.50 445.03 150.75 446.28
  Q 150.31 446.60 150.16 447.11
  Q 149.10 450.51 146.58 453.04
  Q 146.22 453.40 146.14 452.90
  L 145.92 451.51"
/>
<path stroke="#73146c" vector-effect="non-scaling-stroke" d="
  M 205.14 408.08
  Q 201.65 419.75 203.22 430.18
  Q 203.30 430.73 203.86 430.73
  L 261.29 430.54"
/>
<path stroke="#821746" vector-effect="non-scaling-stroke" d="
  M 272.06 444.06
  Q 266.78 446.75 258.50 446.82
  Q 226.89 447.08 206.75 446.98
  Q 200.58 446.95 195.28 449.01
  Q 194.81 449.20 194.32 449.05
  Q 188.13 447.14 186.91 440.90"
/>
<path stroke="#0f0f11" vector-effect="non-scaling-stroke" d="
  M 260.10 222.70
  A 1.36 1.35 -7.9 0 0 261.83 224.00
  Q 270.28 221.59 278.26 217.88
  C 284.99 214.76 291.08 212.47 297.74 209.47
  Q 299.38 208.73 300.40 207.48
  A 0.70 0.70 0.0 0 0 300.41 206.62
  C 299.33 205.22 297.99 204.06 297.12 202.61
  Q 290.34 191.30 285.50 179.04
  C 284.06 175.38 282.65 164.12 279.96 161.99
  A 2.08 2.08 0.0 0 0 276.83 162.65
  C 271.19 173.31 268.26 185.39 265.42 196.95
  C 263.87 203.22 262.44 211.88 260.49 219.26
  Q 260.09 220.78 260.10 222.70"
/>
<path stroke="#0f0f11" vector-effect="non-scaling-stroke" d="
  M 530.91 220.62
  C 530.88 220.15 530.13 205.73 527.63 203.13
  A 0.78 0.77 -43.7 0 0 526.54 203.11
  C 519.03 210.31 512.01 217.84 504.68 225.19
  C 497.19 232.70 490.63 237.61 481.45 241.03
  Q 479.70 241.68 480.97 243.05
  Q 483.99 246.30 487.42 248.39
  C 492.92 251.74 498.09 257.62 501.47 260.54
  C 503.06 261.91 505.41 262.67 507.17 264.22
  Q 513.12 269.45 518.45 275.30
  Q 520.06 277.08 522.72 278.86
  A 1.73 1.72 -63.8 0 0 525.31 277.97
  C 529.05 266.78 531.66 255.57 531.66 243.42
  Q 531.65 232.01 530.91 220.62"
/>
<path stroke="#0f0f11" vector-effect="non-scaling-stroke" d="
  M 400.94 503.89
  A 1.60 1.59 -32.0 0 1 401.27 502.49
  Q 404.30 498.92 408.11 496.55
  C 413.15 493.43 425.60 485.48 418.27 478.77
  Q 417.11 477.71 414.58 477.26
  Q 411.21 476.65 408.22 474.98
  C 402.62 471.86 398.86 476.01 393.59 476.72
  Q 391.04 477.07 388.55 477.69
  Q 383.89 478.85 381.35 479.05
  Q 362.85 480.50 344.60 477.73
  C 332.53 475.90 319.59 470.97 307.44 466.92
  Q 304.08 465.80 300.57 465.81
  C 296.66 465.81 292.69 468.21 288.33 468.67
  A 0.75 0.75 0.0 0 0 287.74 469.76
  L 295.07 484.56
  A 0.74 0.62 -63.0 0 1 295.14 484.87
  C 295.02 490.97 296.21 496.16 294.12 501.00
  C 292.62 504.48 292.51 506.66 292.14 510.10
  A 1.55 1.53 -21.2 0 1 291.74 510.99
  Q 288.79 514.19 290.41 518.71
  C 292.03 523.27 293.53 526.55 298.13 528.69
  Q 306.55 532.62 314.73 537.02
  Q 318.65 539.13 325.63 539.91
  C 327.75 540.15 329.14 541.71 331.45 541.78
  Q 353.75 542.44 370.00 541.95
  Q 372.65 541.87 375.02 539.88
  Q 375.42 539.54 375.94 539.48
  C 377.94 539.25 379.51 539.00 381.44 538.29
  Q 388.56 535.69 398.32 532.60
  Q 400.96 531.76 403.55 529.93
  Q 403.97 529.63 403.98 529.11
  Q 404.08 520.18 403.92 511.25
  C 403.85 507.43 401.62 506.80 400.94 503.89"
/>
<path stroke="#0f0f11" vector-effect="non-scaling-stroke" d="
  M 279.05 490.41
  L 272.27 477.73
  Q 272.04 477.30 271.59 477.49
  C 268.25 478.94 267.71 481.91 270.09 484.74
  Q 273.27 488.52 276.43 492.32
  Q 277.71 493.85 278.78 492.66
  A 1.98 1.98 0.0 0 0 279.05 490.41"
/>
<path stroke="#392222" vector-effect="non-scaling-stroke" d="
  M 241.88 508.41
  C 240.87 514.59 244.60 524.22 250.15 527.39
  C 254.43 529.84 261.84 531.27 267.25 531.03
  Q 273.82 530.75 273.73 524.01
  C 273.65 518.39 274.50 511.67 271.31 508.44
  Q 262.79 499.84 254.11 491.38
  Q 253.23 490.52 251.84 490.32
  Q 251.36 490.25 250.93 490.49
  C 244.12 494.48 243.05 501.27 241.88 508.41"
/>
<path stroke="#0f0f11" vector-effect="non-scaling-stroke" d="
  M 423.10 504.83
  Q 419.06 508.47 419.74 513.92
  A 1.24 1.24 0.0 0 0 421.99 514.48
  Q 425.18 509.91 430.54 508.60
  A 0.77 0.73 -73.2 0 0 430.89 508.40
  L 438.78 500.64
  A 0.90 0.89 43.7 0 0 438.75 499.33
  L 434.82 495.85
  A 0.98 0.98 0.0 0 0 433.79 495.68
  C 429.78 497.36 426.35 501.91 423.10 504.83"
/>
<path stroke="#392222" vector-effect="non-scaling-stroke" d="
  M 437.82 522.26
  Q 431.30 526.51 424.85 530.86
  Q 422.28 532.59 420.19 534.97
  A 1.11 1.11 0.0 0 0 419.95 535.95
  Q 421.83 543.51 428.70 546.80
  A 1.95 1.90 -35.5 0 0 429.80 546.97
  C 436.08 546.11 446.31 543.19 449.87 537.39
  Q 456.24 527.04 449.38 515.48
  A 1.93 1.93 0.0 0 0 446.57 514.91
  C 443.45 517.23 441.03 520.17 437.82 522.26"
/>
<path stroke="#0f0f11" vector-effect="non-scaling-stroke" d="
  M 300.64 548.76
  C 297.62 547.40 294.39 545.52 290.76 544.63
  A 0.71 0.70 18.9 0 0 289.96 545.02
  C 288.01 549.24 293.74 560.56 296.53 563.74
  C 299.29 566.88 305.73 572.36 310.35 570.88
  C 314.40 569.59 317.85 568.72 321.50 566.24
  Q 325.29 563.66 329.56 561.08
  A 1.18 1.18 0.0 0 0 329.25 558.92
  Q 314.85 555.14 300.64 548.76"
/>
<path stroke="#0f0f11" vector-effect="non-scaling-stroke" d="
  M 407.02 549.56
  A 2.04 2.03 82.8 0 0 404.14 547.32
  Q 392.17 553.12 378.83 556.98
  C 372.35 558.86 365.13 558.28 358.41 558.37
  A 0.48 0.48 0.0 0 0 357.96 558.99
  C 362.63 574.12 377.82 577.74 391.43 572.61
  C 396.66 570.64 401.09 568.36 403.03 563.28
  Q 405.61 556.52 407.02 549.56"
/>
<path stroke="#808080" vector-effect="non-scaling-stroke" d="
  M 265.33 329.25
  C 261.36 332.33 256.41 339.06 257.78 344.49
  C 260.94 357.03 275.16 360.11 285.62 355.58
  C 294.90 351.56 293.37 336.20 290.73 328.53
  C 289.79 325.82 289.36 324.62 286.12 324.43
  C 279.09 324.04 270.86 324.95 265.33 329.25"
/>
</g>
<g fill="#ffffff">
<path d="
  M 0.00 0.00
  L 696.00 0.00
  L 696.00 696.00
  L 0.00 696.00
  L 0.00 0.00
  Z
  M 224.28 518.29
  L 226.37 519.52
  Q 231.40 534.65 244.35 542.85
  Q 248.19 545.28 253.15 546.25
  Q 261.71 547.92 270.48 547.68
  Q 272.27 548.88 273.02 550.17
  Q 273.88 554.64 277.53 563.50
  Q 284.95 581.52 302.02 587.19
  C 311.94 590.49 320.02 585.91 328.77 580.41
  Q 335.73 576.03 341.72 570.47
  A 1.73 1.73 0.0 0 1 344.39 570.86
  C 354.50 587.95 373.34 594.81 392.36 590.08
  C 405.10 586.92 418.24 575.70 421.07 562.50
  Q 421.22 561.79 421.87 562.12
  L 423.53 562.96
  Q 423.99 563.19 424.50 563.23
  Q 432.97 563.89 441.18 561.80
  C 443.93 561.10 446.63 560.71 448.80 561.95
  C 452.54 564.08 456.23 569.22 461.44 571.49
  C 465.39 573.20 470.05 573.77 474.52 574.34
  Q 494.58 576.88 514.61 579.74
  Q 519.15 580.39 521.80 579.47
  C 526.77 577.73 531.12 571.40 527.20 566.54
  Q 516.08 552.75 504.80 538.01
  A 0.80 0.80 0.0 0 1 505.48 536.72
  C 507.56 536.83 509.73 537.91 511.63 538.20
  Q 524.78 540.17 549.51 542.55
  C 552.35 542.82 555.98 544.81 559.29 544.08
  C 569.29 541.87 569.94 520.56 569.38 512.24
  C 568.48 498.79 567.07 485.42 566.77 471.94
  Q 566.76 471.40 567.30 471.40
  Q 585.91 471.45 604.48 471.25
  C 618.51 471.11 616.23 457.03 613.85 447.51
  C 610.87 435.58 609.10 423.41 606.75 411.36
  Q 605.55 405.16 603.26 398.87
  C 596.97 381.58 591.79 363.74 584.71 346.78
  Q 583.39 343.62 583.50 340.61
  A 1.69 1.68 -16.0 0 1 584.25 339.27
  C 595.08 332.02 604.61 323.29 615.34 315.95
  Q 618.37 313.88 620.69 312.01
  C 623.82 309.49 627.24 307.38 629.36 303.83
  A 1.19 1.18 -37.8 0 0 629.48 302.90
  C 628.46 299.45 624.28 296.19 621.35 294.39
  C 617.14 291.82 611.50 291.17 607.00 289.13
  Q 597.62 284.89 588.62 279.90
  Q 580.59 275.45 573.09 269.52
  Q 566.98 264.69 558.56 257.67
  Q 551.96 252.17 548.75 245.45
  A 1.27 1.25 -47.1 0 1 548.72 244.43
  Q 550.32 240.35 549.88 237.75
  C 548.17 227.42 548.17 215.68 545.53 203.51
  Q 542.85 191.12 533.07 178.20
  C 526.90 170.05 519.54 180.31 517.08 185.60
  Q 510.39 200.02 497.96 210.16
  A 0.72 0.71 -41.8 0 1 497.01 210.11
  C 495.48 208.57 494.09 207.11 492.83 205.16
  C 487.16 196.35 479.66 192.64 470.96 188.57
  A 2.86 2.86 0.0 0 1 469.32 186.03
  C 469.23 178.60 469.68 168.35 466.21 161.82
  Q 462.75 155.34 455.34 145.19
  Q 448.29 135.53 432.95 122.05
  C 427.44 117.20 417.68 131.06 414.57 134.89
  C 408.54 142.32 399.51 145.31 390.35 147.05
  Q 387.48 147.59 384.65 146.90
  C 364.82 142.03 348.78 124.68 333.58 109.14
  Q 332.41 107.95 330.02 107.57
  Q 329.56 107.49 329.19 107.79
  C 318.22 116.60 319.98 127.03 319.44 138.90
  A 0.72 0.71 88.7 0 1 318.79 139.59
  Q 315.47 139.90 312.70 138.02
  A 1.11 1.10 52.3 0 0 311.72 137.89
  Q 302.03 141.19 293.97 147.46
  A 0.62 0.62 0.0 0 1 292.97 146.99
  C 292.70 140.36 292.02 135.13 285.28 132.36
  C 281.79 130.93 278.35 133.67 276.07 136.08
  Q 266.09 146.67 259.96 159.18
  Q 258.33 162.50 256.67 165.83
  A 1.36 1.30 -87.5 0 1 256.01 166.46
  Q 254.47 167.13 253.50 167.18
  Q 234.70 168.30 216.01 166.40
  Q 208.90 165.68 202.78 163.98
  C 194.51 161.68 187.52 158.06 180.40 155.14
  C 170.78 151.20 162.57 154.74 162.19 166.31
  Q 161.97 172.90 162.24 175.51
  Q 164.03 192.76 165.74 210.04
  C 165.97 212.34 166.76 214.02 167.46 216.29
  A 1.06 1.05 -36.9 0 1 167.33 217.19
  Q 164.34 221.65 161.72 223.49
  Q 148.12 233.03 134.58 242.66
  C 123.59 250.47 117.27 254.52 110.79 262.02
  Q 91.95 283.83 78.91 312.43
  Q 76.57 317.58 79.24 321.68
  C 80.78 324.05 85.30 327.05 87.69 328.60
  C 96.24 334.16 104.71 340.27 113.60 345.07
  Q 118.87 347.91 124.25 350.59
  Q 124.72 350.82 124.27 351.09
  Q 118.80 354.39 114.49 354.05
  Q 106.28 353.40 85.01 349.29
  C 79.07 348.15 67.18 351.98 71.38 360.39
  Q 77.92 373.47 85.75 382.25
  Q 107.43 406.58 136.61 420.68
  A 1.78 1.77 -66.6 0 1 137.49 422.93
  C 130.92 439.53 125.48 456.58 127.67 474.63
  Q 127.98 477.19 128.82 482.85
  C 129.68 488.63 130.57 496.43 136.93 498.01
  Q 139.48 498.65 145.49 497.32
  Q 164.66 493.10 186.01 490.73
  C 189.85 490.30 199.37 488.54 200.65 493.47
  C 203.45 504.26 213.24 516.73 224.28 518.29
  Z"
/>
<path d="
  M 257.78 344.49
  C 256.41 339.06 261.36 332.33 265.33 329.25
  C 270.86 324.95 279.09 324.04 286.12 324.43
  C 289.36 324.62 289.79 325.82 290.73 328.53
  C 293.37 336.20 294.90 351.56 285.62 355.58
  C 275.16 360.11 260.94 357.03 257.78 344.49
  Z"
/>
</g>
<g fill="#2f20ac">
<path d="
  M 465.65 228.96
  Q 461.90 228.33 458.26 229.66
  A 0.99 0.99 0.0 0 1 457.25 229.44
  L 455.50 227.75
  A 1.49 1.44 68.2 0 0 454.61 227.35
  C 445.97 226.66 437.40 219.85 432.11 230.68
  C 429.85 235.32 435.22 239.01 438.83 240.37
  Q 449.11 244.24 457.97 248.21
  Q 461.59 250.45 464.61 252.00
  C 466.61 253.01 467.90 254.66 469.80 255.74
  Q 474.63 258.51 478.73 262.29
  C 481.10 264.47 484.16 265.18 486.22 267.38
  Q 489.28 270.64 493.09 272.90
  Q 496.42 274.88 498.14 276.51
  Q 504.27 282.34 510.05 288.49
  C 512.02 290.59 512.43 293.17 514.36 295.26
  Q 518.83 300.09 524.19 305.25
  A 2.78 2.78 0.0 0 0 527.97 305.32
  Q 530.02 303.48 532.20 301.15
  C 534.44 298.77 534.44 296.83 534.32 293.75
  A 1.10 1.08 69.4 0 1 534.71 292.87
  Q 539.82 288.62 541.80 282.25
  Q 544.00 275.18 546.27 268.28
  A 1.24 1.23 20.1 0 1 547.91 267.52
  Q 549.34 268.09 550.78 269.48
  C 558.33 276.77 565.36 285.01 574.26 291.01
  C 581.53 295.91 590.51 300.05 598.70 304.34
  Q 600.42 305.24 599.31 306.83
  Q 598.16 308.49 595.83 310.30
  Q 580.49 322.23 570.08 330.84
  C 567.06 333.34 563.18 336.88 564.34 340.99
  C 566.02 346.93 569.07 353.18 570.78 358.06
  Q 579.10 381.77 587.73 405.45
  C 585.61 405.94 583.51 406.85 581.70 407.19
  Q 574.44 408.58 567.25 410.39
  C 559.96 412.24 553.40 411.29 546.44 409.23
  C 544.11 408.54 541.80 407.14 539.32 406.29
  Q 536.52 405.33 534.62 403.98
  Q 531.86 402.03 529.07 400.16
  Q 528.69 399.91 528.23 399.89
  Q 527.04 399.85 526.58 398.87
  Q 526.37 398.44 525.98 398.17
  Q 523.65 396.59 519.85 394.61
  Q 514.22 391.68 510.51 385.19
  L 521.77 373.69
  Q 530.37 365.09 537.52 350.75
  Q 542.65 340.47 547.76 330.16
  C 549.00 327.66 550.50 325.89 552.26 323.84
  A 2.98 2.98 0.0 0 0 552.25 319.93
  C 550.13 317.49 547.75 314.17 544.19 313.82
  Q 541.96 313.60 540.46 312.87
  C 535.62 310.52 530.90 311.68 527.02 310.89
  Q 521.29 309.73 511.72 306.83
  C 500.12 303.31 489.26 297.14 478.67 291.30
  C 475.48 289.54 472.36 284.96 468.59 288.33
  C 461.10 295.05 462.66 300.40 470.75 305.46
  C 482.54 312.85 498.12 321.67 512.70 324.89
  C 516.31 325.69 522.15 327.88 527.38 327.43
  A 1.36 1.36 0.0 0 1 528.76 329.30
  Q 523.11 343.00 515.56 355.57
  Q 510.45 364.08 500.95 373.04
  Q 494.48 374.80 489.97 382.67
  Q 485.94 385.27 479.14 386.94
  Q 472.14 388.66 465.00 389.61
  Q 458.12 390.53 437.34 389.66
  C 434.42 389.54 431.95 388.72 429.20 387.91
  C 426.57 387.14 423.97 387.61 421.18 386.79
  Q 417.38 385.66 417.28 385.64
  Q 409.75 383.87 402.60 380.90
  Q 400.44 380.00 396.69 378.90
  Q 393.66 378.02 390.86 376.61
  C 389.59 375.97 389.05 374.71 387.63 374.13
  C 382.96 372.21 378.68 369.30 374.33 366.75
  Q 372.98 365.95 371.92 364.93
  C 370.52 363.56 369.24 361.71 366.93 362.00
  Q 359.80 350.27 346.84 341.90
  Q 340.20 337.61 337.48 329.79
  Q 338.25 326.74 338.76 318.74
  C 338.93 316.05 340.37 312.13 340.88 308.73
  Q 342.94 295.05 350.19 283.35
  C 352.16 280.17 356.87 274.54 357.60 270.24
  C 358.25 266.46 355.06 263.38 352.36 260.94
  Q 351.15 259.85 350.17 259.67
  C 345.88 258.85 338.34 270.94 336.07 274.37
  Q 333.69 277.97 331.86 282.70
  C 329.69 288.32 326.36 294.35 325.55 300.31
  Q 324.82 305.69 323.18 310.82
  Q 322.51 312.93 322.42 315.21
  Q 322.34 317.44 322.06 319.69
  C 314.41 316.94 306.56 313.66 298.69 312.40
  C 293.00 311.48 287.52 310.30 281.83 311.12
  Q 262.83 313.86 246.57 323.82
  Q 242.31 323.65 241.79 320.78
  Q 240.54 313.92 235.52 309.99
  C 233.28 308.24 230.78 309.56 228.43 307.81
  Q 226.04 306.05 222.89 302.87
  C 217.79 297.74 208.83 290.12 211.41 285.36
  Q 212.27 283.79 215.67 281.87
  Q 220.96 278.88 225.16 274.44
  C 228.08 271.34 228.22 267.68 226.69 264.00
  C 224.09 257.73 219.65 251.69 218.92 243.07
  C 218.66 240.06 217.72 237.82 216.61 235.14
  A 1.27 1.27 0.0 0 1 218.16 233.44
  Q 231.73 237.57 243.69 245.09
  Q 248.53 248.90 254.08 251.37
  A 2.22 2.22 0.0 0 0 256.58 250.88
  C 260.04 247.29 263.44 243.06 267.95 240.68
  C 270.40 239.39 272.88 238.01 275.48 237.01
  Q 290.43 231.23 305.17 224.95
  Q 306.65 224.32 309.50 224.33
  Q 317.33 224.37 325.39 224.22
  C 334.25 224.36 342.02 225.01 346.16 217.62
  C 347.24 215.69 346.43 214.54 345.13 213.12
  C 342.84 210.62 341.26 208.55 337.63 208.44
  Q 328.05 208.15 318.82 207.79
  C 317.55 205.15 316.81 202.46 315.38 200.22
  C 311.93 194.80 308.12 189.64 305.67 183.79
  Q 302.00 175.07 298.96 166.30
  A 1.99 1.99 0.0 0 1 299.37 164.29
  C 302.14 161.27 306.66 155.80 311.23 156.45
  Q 318.67 157.51 326.10 158.71
  Q 333.56 159.92 337.64 153.39
  C 341.58 147.08 335.02 141.61 336.41 135.03
  A 0.50 0.50 0.0 0 1 337.25 134.77
  Q 347.33 144.56 358.73 152.83
  Q 374.28 164.12 393.36 166.68
  C 397.65 167.26 398.21 164.97 401.49 163.46
  Q 407.88 160.52 413.83 156.80
  C 419.61 153.19 424.58 148.16 429.57 143.31
  Q 431.13 141.80 432.95 143.54
  Q 442.89 153.06 449.14 165.17
  C 452.78 172.23 453.13 181.19 453.01 188.97
  Q 452.97 191.81 453.97 193.65
  C 458.78 202.47 470.21 204.76 477.18 211.19
  Q 481.48 215.17 484.21 219.54
  Q 485.60 221.78 483.12 222.68
  L 465.65 228.96
  Z"
/>
<path d="
  M 243.89 224.52
  Q 241.58 225.63 238.98 224.49
  C 230.75 220.90 224.21 217.40 217.17 212.66
  C 214.52 210.88 209.05 207.25 205.96 209.17
  C 203.13 210.94 200.93 213.96 200.51 217.54
  Q 199.37 227.17 200.55 236.84
  C 200.96 240.18 202.74 243.55 203.02 247.39
  Q 203.27 250.81 203.89 252.74
  Q 205.85 258.81 207.83 264.78
  A 3.25 3.25 0.0 0 1 206.85 268.28
  C 204.21 270.53 202.39 272.38 200.47 275.59
  Q 197.29 280.94 192.74 285.22
  C 190.02 287.77 188.23 290.02 191.39 293.12
  Q 198.69 300.29 205.60 307.28
  A 0.74 0.74 0.0 0 1 205.08 308.54
  Q 195.38 308.64 186.24 308.64
  Q 181.05 308.64 178.08 312.52
  C 174.80 316.80 176.20 324.08 177.82 328.88
  C 178.70 331.48 178.66 333.92 179.12 336.55
  L 181.43 341.90
  Q 177.89 344.89 171.06 341.21
  A 1.86 1.80 -30.9 0 0 170.11 340.99
  Q 165.72 341.16 162.93 339.43
  Q 160.39 337.86 158.11 337.17
  Q 154.57 336.09 153.55 335.56
  Q 147.16 332.25 145.15 330.84
  Q 137.36 325.41 133.04 322.56
  C 127.50 318.91 122.97 315.61 117.80 312.31
  Q 113.43 309.52 110.48 306.96
  Q 107.04 303.97 103.74 300.86
  Q 111.53 286.77 118.59 276.81
  C 122.46 271.34 127.25 267.51 133.49 263.21
  Q 157.66 246.56 180.86 228.59
  C 184.12 226.07 188.02 222.50 185.78 218.04
  Q 182.01 210.51 181.42 202.00
  Q 180.55 189.45 178.54 175.41
  A 1.31 1.31 0.0 0 1 180.23 173.97
  C 191.11 177.43 202.68 182.48 214.30 183.33
  C 226.09 184.19 238.25 183.53 250.27 183.50
  A 0.71 0.70 -82.9 0 1 250.95 184.38
  Q 247.26 198.79 244.53 213.76
  Q 243.45 219.71 243.89 224.52
  Z"
/>
<path d="
  M 230.31 349.35
  Q 229.84 355.96 230.93 363.27
  C 228.58 362.98 226.02 363.24 224.02 362.90
  Q 219.47 362.14 215.21 360.33
  Q 206.94 352.83 200.51 344.15
  Q 198.19 337.27 195.17 331.01
  C 194.65 329.94 194.60 328.29 194.53 327.17
  Q 194.39 324.92 196.65 324.90
  Q 207.84 324.77 219.15 324.93
  C 227.35 325.04 230.37 324.72 230.29 333.79
  Q 230.23 341.53 230.31 349.35
  Z"
/>
</g>
<g fill="#000000">
<path d="
  M 273.02 550.17
  Q 273.04 547.87 270.48 547.68
  Q 261.71 547.92 253.15 546.25
  Q 248.19 545.28 244.35 542.85
  Q 231.40 534.65 226.37 519.52
  Q 226.95 518.45 224.28 518.29
  C 213.24 516.73 203.45 504.26 200.65 493.47
  C 199.37 488.54 189.85 490.30 186.01 490.73
  Q 164.66 493.10 145.49 497.32
  Q 139.48 498.65 136.93 498.01
  C 130.57 496.43 129.68 488.63 128.82 482.85
  Q 127.98 477.19 127.67 474.63
  C 125.48 456.58 130.92 439.53 137.49 422.93
  A 1.78 1.77 -66.6 0 0 136.61 420.68
  Q 107.43 406.58 85.75 382.25
  Q 77.92 373.47 71.38 360.39
  C 67.18 351.98 79.07 348.15 85.01 349.29
  Q 106.28 353.40 114.49 354.05
  Q 118.80 354.39 124.27 351.09
  Q 124.72 350.82 124.25 350.59
  Q 118.87 347.91 113.60 345.07
  C 104.71 340.27 96.24 334.16 87.69 328.60
  C 85.30 327.05 80.78 324.05 79.24 321.68
  Q 76.57 317.58 78.91 312.43
  Q 91.95 283.83 110.79 262.02
  C 117.27 254.52 123.59 250.47 134.58 242.66
  Q 148.12 233.03 161.72 223.49
  Q 164.34 221.65 167.33 217.19
  A 1.06 1.05 -36.9 0 0 167.46 216.29
  C 166.76 214.02 165.97 212.34 165.74 210.04
  Q 164.03 192.76 162.24 175.51
  Q 161.97 172.90 162.19 166.31
  C 162.57 154.74 170.78 151.20 180.40 155.14
  C 187.52 158.06 194.51 161.68 202.78 163.98
  Q 208.90 165.68 216.01 166.40
  Q 234.70 168.30 253.50 167.18
  Q 254.47 167.13 256.01 166.46
  A 1.36 1.30 -87.5 0 0 256.67 165.83
  Q 258.33 162.50 259.96 159.18
  Q 266.09 146.67 276.07 136.08
  C 278.35 133.67 281.79 130.93 285.28 132.36
  C 292.02 135.13 292.70 140.36 292.97 146.99
  A 0.62 0.62 0.0 0 0 293.97 147.46
  Q 302.03 141.19 311.72 137.89
  A 1.11 1.10 52.3 0 1 312.70 138.02
  Q 315.47 139.90 318.79 139.59
  A 0.72 0.71 88.7 0 0 319.44 138.90
  C 319.98 127.03 318.22 116.60 329.19 107.79
  Q 329.56 107.49 330.02 107.57
  Q 332.41 107.95 333.58 109.14
  C 348.78 124.68 364.82 142.03 384.65 146.90
  Q 387.48 147.59 390.35 147.05
  C 399.51 145.31 408.54 142.32 414.57 134.89
  C 417.68 131.06 427.44 117.20 432.95 122.05
  Q 448.29 135.53 455.34 145.19
  Q 462.75 155.34 466.21 161.82
  C 469.68 168.35 469.23 178.60 469.32 186.03
  A 2.86 2.86 0.0 0 0 470.96 188.57
  C 479.66 192.64 487.16 196.35 492.83 205.16
  C 494.09 207.11 495.48 208.57 497.01 210.11
  A 0.72 0.71 -41.8 0 0 497.96 210.16
  Q 510.39 200.02 517.08 185.60
  C 519.54 180.31 526.90 170.05 533.07 178.20
  Q 542.85 191.12 545.53 203.51
  C 548.17 215.68 548.17 227.42 549.88 237.75
  Q 550.32 240.35 548.72 244.43
  A 1.27 1.25 -47.1 0 0 548.75 245.45
  Q 551.96 252.17 558.56 257.67
  Q 566.98 264.69 573.09 269.52
  Q 580.59 275.45 588.62 279.90
  Q 597.62 284.89 607.00 289.13
  C 611.50 291.17 617.14 291.82 621.35 294.39
  C 624.28 296.19 628.46 299.45 629.48 302.90
  A 1.19 1.18 -37.8 0 1 629.36 303.83
  C 627.24 307.38 623.82 309.49 620.69 312.01
  Q 618.37 313.88 615.34 315.95
  C 604.61 323.29 595.08 332.02 584.25 339.27
  A 1.69 1.68 -16.0 0 0 583.50 340.61
  Q 583.39 343.62 584.71 346.78
  C 591.79 363.74 596.97 381.58 603.26 398.87
  Q 605.55 405.16 606.75 411.36
  C 609.10 423.41 610.87 435.58 613.85 447.51
  C 616.23 457.03 618.51 471.11 604.48 471.25
  Q 585.91 471.45 567.30 471.40
  Q 566.76 471.40 566.77 471.94
  C 567.07 485.42 568.48 498.79 569.38 512.24
  C 569.94 520.56 569.29 541.87 559.29 544.08
  C 555.98 544.81 552.35 542.82 549.51 542.55
  Q 524.78 540.17 511.63 538.20
  C 509.73 537.91 507.56 536.83 505.48 536.72
  A 0.80 0.80 0.0 0 0 504.80 538.01
  Q 516.08 552.75 527.20 566.54
  C 531.12 571.40 526.77 577.73 521.80 579.47
  Q 519.15 580.39 514.61 579.74
  Q 494.58 576.88 474.52 574.34
  C 470.05 573.77 465.39 573.20 461.44 571.49
  C 456.23 569.22 452.54 564.08 448.80 561.95
  C 446.63 560.71 443.93 561.10 441.18 561.80
  Q 432.97 563.89 424.50 563.23
  Q 423.99 563.19 423.53 562.96
  L 421.87 562.12
  Q 421.22 561.79 421.07 562.50
  C 418.24 575.70 405.10 586.92 392.36 590.08
  C 373.34 594.81 354.50 587.95 344.39 570.86
  A 1.73 1.73 0.0 0 0 341.72 570.47
  Q 335.73 576.03 328.77 580.41
  C 320.02 585.91 311.94 590.49 302.02 587.19
  Q 284.95 581.52 277.53 563.50
  Q 273.88 554.64 273.02 550.17
  Z
  M 318.82 207.79
  Q 320.40 216.59 325.39 224.22
  Q 317.33 224.37 309.50 224.33
  Q 306.65 224.32 305.17 224.95
  Q 290.43 231.23 275.48 237.01
  C 272.88 238.01 270.40 239.39 267.95 240.68
  C 263.44 243.06 260.04 247.29 256.58 250.88
  A 2.22 2.22 0.0 0 1 254.08 251.37
  Q 248.53 248.90 243.69 245.09
  L 243.89 224.52
  Q 243.45 219.71 244.53 213.76
  Q 247.26 198.79 250.95 184.38
  A 0.71 0.70 -82.9 0 0 250.27 183.50
  C 238.25 183.53 226.09 184.19 214.30 183.33
  C 202.68 182.48 191.11 177.43 180.23 173.97
  A 1.31 1.31 0.0 0 0 178.54 175.41
  Q 180.55 189.45 181.42 202.00
  Q 182.01 210.51 185.78 218.04
  C 188.02 222.50 184.12 226.07 180.86 228.59
  Q 157.66 246.56 133.49 263.21
  C 127.25 267.51 122.46 271.34 118.59 276.81
  Q 111.53 286.77 103.74 300.86
  Q 101.02 305.78 98.87 310.53
  C 97.70 313.12 95.70 315.04 99.25 317.27
  C 108.24 322.91 117.58 329.24 126.62 333.54
  Q 135.54 337.78 144.86 341.08
  C 164.50 348.03 148.66 360.58 139.50 364.80
  Q 127.98 370.12 115.41 370.68
  C 110.63 370.90 105.81 369.67 101.01 368.72
  Q 98.93 368.31 97.70 368.91
  A 1.73 1.73 0.0 0 0 97.05 371.48
  Q 103.38 380.18 111.70 385.99
  C 121.85 393.62 130.21 398.15 142.13 404.24
  C 146.41 406.43 157.05 412.83 156.94 418.14
  Q 156.86 421.79 154.48 426.76
  Q 148.82 438.59 145.92 451.51
  Q 144.20 458.35 143.81 465.74
  C 143.69 468.24 143.90 476.48 147.08 479.07
  Q 147.53 479.43 148.09 479.32
  Q 172.08 474.62 196.51 473.66
  Q 199.95 473.52 203.54 470.05
  C 204.62 469.00 206.15 468.02 207.42 468.82
  C 212.60 472.07 214.38 479.70 215.86 486.92
  C 216.33 489.20 220.44 500.62 224.48 501.84
  A 1.72 1.72 0.0 0 0 226.69 500.32
  C 226.98 496.19 227.68 492.93 230.29 489.50
  Q 237.99 479.39 248.37 472.20
  Q 251.77 469.85 259.66 466.14
  Q 268.56 461.97 276.88 456.69
  C 279.26 455.18 281.25 454.92 283.94 454.34
  Q 284.57 454.20 284.20 453.68
  C 280.89 448.90 276.43 447.23 272.06 444.06
  C 271.00 442.43 269.70 441.13 268.65 439.37
  Q 265.27 433.73 261.29 430.54
  Q 257.58 427.62 257.14 424.92
  Q 261.55 424.74 265.88 426.60
  Q 268.30 427.64 270.33 427.78
  Q 288.82 429.07 305.80 432.19
  Q 307.24 432.46 308.62 433.54
  Q 309.25 434.03 308.45 434.02
  L 305.51 433.98
  Q 296.33 434.10 287.34 432.79
  A 0.68 0.68 0.0 0 0 286.69 433.86
  Q 288.28 436.08 290.61 437.66
  C 303.48 446.39 318.33 454.14 333.45 457.98
  C 349.08 461.96 366.54 465.34 382.55 461.79
  C 387.11 460.77 392.36 460.99 395.79 457.06
  Q 396.10 456.71 395.77 456.38
  L 381.60 442.28
  Q 392.44 440.18 403.74 442.87
  L 419.00 450.82
  C 420.70 453.54 422.21 455.88 424.58 458.19
  C 427.79 461.31 431.39 465.66 435.16 467.98
  Q 437.63 469.50 436.20 470.84
  Q 434.29 471.07 433.84 472.08
  Q 433.62 472.55 433.99 472.92
  Q 444.22 483.11 454.31 493.44
  Q 463.03 502.38 466.95 514.27
  C 471.12 526.93 468.30 539.80 461.71 551.26
  Q 461.43 551.74 461.90 552.03
  C 469.35 556.84 478.58 558.51 487.48 559.46
  C 491.31 559.87 496.41 561.44 501.25 560.85
  Q 502.00 560.76 501.56 560.16
  Q 491.55 546.37 481.04 532.96
  C 477.88 528.94 481.73 523.60 485.39 521.68
  C 488.92 519.83 495.57 519.69 499.45 520.07
  Q 512.01 521.30 543.25 525.48
  Q 547.66 526.07 552.25 525.41
  Q 552.79 525.34 552.99 524.83
  Q 553.71 523.00 553.51 521.04
  Q 553.89 516.98 553.28 511.00
  Q 552.06 499.00 550.65 487.01
  C 550.39 484.76 550.51 482.33 550.39 479.95
  L 550.30 467.26
  L 550.42 462.55
  Q 550.43 462.01 550.81 461.63
  L 556.18 456.19
  Q 557.23 455.12 558.74 455.11
  L 594.46 454.96
  A 2.46 2.45 84.1 0 0 596.85 452.01
  C 595.62 445.99 594.98 440.32 593.69 433.80
  Q 593.07 430.70 592.46 426.27
  Q 591.53 419.52 587.73 405.45
  Q 579.10 381.77 570.78 358.06
  C 569.07 353.18 566.02 346.93 564.34 340.99
  C 563.18 336.88 567.06 333.34 570.08 330.84
  Q 580.49 322.23 595.83 310.30
  Q 598.16 308.49 599.31 306.83
  Q 600.42 305.24 598.70 304.34
  C 590.51 300.05 581.53 295.91 574.26 291.01
  C 565.36 285.01 558.33 276.77 550.78 269.48
  Q 549.34 268.09 547.91 267.52
  A 1.24 1.23 20.1 0 0 546.27 268.28
  Q 544.00 275.18 541.80 282.25
  Q 539.82 288.62 534.71 292.87
  A 1.10 1.08 69.4 0 0 534.32 293.75
  C 534.44 296.83 534.44 298.77 532.20 301.15
  Q 530.02 303.48 527.97 305.32
  A 2.78 2.78 0.0 0 1 524.19 305.25
  Q 518.83 300.09 514.36 295.26
  C 512.43 293.17 512.02 290.59 510.05 288.49
  Q 504.27 282.34 498.14 276.51
  Q 496.42 274.88 493.09 272.90
  Q 489.28 270.64 486.22 267.38
  C 484.16 265.18 481.10 264.47 478.73 262.29
  Q 474.63 258.51 469.80 255.74
  C 467.90 254.66 466.61 253.01 464.61 252.00
  Q 461.59 250.45 457.97 248.21
  Q 459.05 240.87 455.52 236.03
  Q 455.24 235.65 455.28 235.18
  C 455.46 232.98 459.70 231.39 461.32 230.19
  C 462.77 229.12 463.94 229.13 465.65 228.96
  L 483.12 222.68
  Q 485.60 221.78 484.21 219.54
  Q 481.48 215.17 477.18 211.19
  C 470.21 204.76 458.78 202.47 453.97 193.65
  Q 452.97 191.81 453.01 188.97
  C 453.13 181.19 452.78 172.23 449.14 165.17
  Q 442.89 153.06 432.95 143.54
  Q 431.13 141.80 429.57 143.31
  C 424.58 148.16 419.61 153.19 413.83 156.80
  Q 407.88 160.52 401.49 163.46
  C 398.21 164.97 397.65 167.26 393.36 166.68
  Q 374.28 164.12 358.73 152.83
  Q 347.33 144.56 337.25 134.77
  A 0.50 0.50 0.0 0 0 336.41 135.03
  C 335.02 141.61 341.58 147.08 337.64 153.39
  Q 333.56 159.92 326.10 158.71
  Q 318.67 157.51 311.23 156.45
  C 306.66 155.80 302.14 161.27 299.37 164.29
  A 1.99 1.99 0.0 0 0 298.96 166.30
  Q 302.00 175.07 305.67 183.79
  C 308.12 189.64 311.93 194.80 315.38 200.22
  C 316.81 202.46 317.55 205.15 318.82 207.79
  Z
  M 260.10 222.70
  A 1.36 1.35 -7.9 0 0 261.83 224.00
  Q 270.28 221.59 278.26 217.88
  C 284.99 214.76 291.08 212.47 297.74 209.47
  Q 299.38 208.73 300.40 207.48
  A 0.70 0.70 0.0 0 0 300.41 206.62
  C 299.33 205.22 297.99 204.06 297.12 202.61
  Q 290.34 191.30 285.50 179.04
  C 284.06 175.38 282.65 164.12 279.96 161.99
  A 2.08 2.08 0.0 0 0 276.83 162.65
  C 271.19 173.31 268.26 185.39 265.42 196.95
  C 263.87 203.22 262.44 211.88 260.49 219.26
  Q 260.09 220.78 260.10 222.70
  Z
  M 530.91 220.62
  C 530.88 220.15 530.13 205.73 527.63 203.13
  A 0.78 0.77 -43.7 0 0 526.54 203.11
  C 519.03 210.31 512.01 217.84 504.68 225.19
  C 497.19 232.70 490.63 237.61 481.45 241.03
  Q 479.70 241.68 480.97 243.05
  Q 483.99 246.30 487.42 248.39
  C 492.92 251.74 498.09 257.62 501.47 260.54
  C 503.06 261.91 505.41 262.67 507.17 264.22
  Q 513.12 269.45 518.45 275.30
  Q 520.06 277.08 522.72 278.86
  A 1.73 1.72 -63.8 0 0 525.31 277.97
  C 529.05 266.78 531.66 255.57 531.66 243.42
  Q 531.65 232.01 530.91 220.62
  Z
  M 400.94 503.89
  A 1.60 1.59 -32.0 0 1 401.27 502.49
  Q 404.30 498.92 408.11 496.55
  C 413.15 493.43 425.60 485.48 418.27 478.77
  Q 417.11 477.71 414.58 477.26
  Q 411.21 476.65 408.22 474.98
  C 402.62 471.86 398.86 476.01 393.59 476.72
  Q 391.04 477.07 388.55 477.69
  Q 383.89 478.85 381.35 479.05
  Q 362.85 480.50 344.60 477.73
  C 332.53 475.90 319.59 470.97 307.44 466.92
  Q 304.08 465.80 300.57 465.81
  C 296.66 465.81 292.69 468.21 288.33 468.67
  A 0.75 0.75 0.0 0 0 287.74 469.76
  L 295.07 484.56
  A 0.74 0.62 -63.0 0 1 295.14 484.87
  C 295.02 490.97 296.21 496.16 294.12 501.00
  C 292.62 504.48 292.51 506.66 292.14 510.10
  A 1.55 1.53 -21.2 0 1 291.74 510.99
  Q 288.79 514.19 290.41 518.71
  C 292.03 523.27 293.53 526.55 298.13 528.69
  Q 306.55 532.62 314.73 537.02
  Q 318.65 539.13 325.63 539.91
  C 327.75 540.15 329.14 541.71 331.45 541.78
  Q 353.75 542.44 370.00 541.95
  Q 372.65 541.87 375.02 539.88
  Q 375.42 539.54 375.94 539.48
  C 377.94 539.25 379.51 539.00 381.44 538.29
  Q 388.56 535.69 398.32 532.60
  Q 400.96 531.76 403.55 529.93
  Q 403.97 529.63 403.98 529.11
  Q 404.08 520.18 403.92 511.25
  C 403.85 507.43 401.62 506.80 400.94 503.89
  Z
  M 279.05 490.41
  L 272.27 477.73
  Q 272.04 477.30 271.59 477.49
  C 268.25 478.94 267.71 481.91 270.09 484.74
  Q 273.27 488.52 276.43 492.32
  Q 277.71 493.85 278.78 492.66
  A 1.98 1.98 0.0 0 0 279.05 490.41
  Z
  M 241.88 508.41
  C 240.87 514.59 244.60 524.22 250.15 527.39
  C 254.43 529.84 261.84 531.27 267.25 531.03
  Q 273.82 530.75 273.73 524.01
  C 273.65 518.39 274.50 511.67 271.31 508.44
  Q 262.79 499.84 254.11 491.38
  Q 253.23 490.52 251.84 490.32
  Q 251.36 490.25 250.93 490.49
  C 244.12 494.48 243.05 501.27 241.88 508.41
  Z
  M 423.10 504.83
  Q 419.06 508.47 419.74 513.92
  A 1.24 1.24 0.0 0 0 421.99 514.48
  Q 425.18 509.91 430.54 508.60
  A 0.77 0.73 -73.2 0 0 430.89 508.40
  L 438.78 500.64
  A 0.90 0.89 43.7 0 0 438.75 499.33
  L 434.82 495.85
  A 0.98 0.98 0.0 0 0 433.79 495.68
  C 429.78 497.36 426.35 501.91 423.10 504.83
  Z
  M 437.82 522.26
  Q 431.30 526.51 424.85 530.86
  Q 422.28 532.59 420.19 534.97
  A 1.11 1.11 0.0 0 0 419.95 535.95
  Q 421.83 543.51 428.70 546.80
  A 1.95 1.90 -35.5 0 0 429.80 546.97
  C 436.08 546.11 446.31 543.19 449.87 537.39
  Q 456.24 527.04 449.38 515.48
  A 1.93 1.93 0.0 0 0 446.57 514.91
  C 443.45 517.23 441.03 520.17 437.82 522.26
  Z
  M 300.64 548.76
  C 297.62 547.40 294.39 545.52 290.76 544.63
  A 0.71 0.70 18.9 0 0 289.96 545.02
  C 288.01 549.24 293.74 560.56 296.53 563.74
  C 299.29 566.88 305.73 572.36 310.35 570.88
  C 314.40 569.59 317.85 568.72 321.50 566.24
  Q 325.29 563.66 329.56 561.08
  A 1.18 1.18 0.0 0 0 329.25 558.92
  Q 314.85 555.14 300.64 548.76
  Z
  M 407.02 549.56
  A 2.04 2.03 82.8 0 0 404.14 547.32
  Q 392.17 553.12 378.83 556.98
  C 372.35 558.86 365.13 558.28 358.41 558.37
  A 0.48 0.48 0.0 0 0 357.96 558.99
  C 362.63 574.12 377.82 577.74 391.43 572.61
  C 396.66 570.64 401.09 568.36 403.03 563.28
  Q 405.61 556.52 407.02 549.56
  Z"
/>
<path d="
  M 322.06 319.69
  Q 324.57 320.71 327.32 322.54
  C 330.31 324.53 334.66 326.55 337.48 329.79
  Q 340.20 337.61 346.84 341.90
  Q 359.80 350.27 366.93 362.00
  Q 372.53 372.31 377.18 382.94
  C 381.08 391.83 383.03 401.96 385.65 411.54
  Q 388.87 423.34 393.22 430.96
  Q 393.34 432.96 391.63 433.12
  Q 386.07 433.61 380.34 433.17
  A 0.75 0.75 0.0 0 1 379.64 432.35
  C 380.23 426.36 378.94 409.94 370.69 408.89
  Q 368.59 408.63 366.66 408.31
  Q 366.72 406.88 366.57 406.28
  Q 362.14 388.61 354.33 372.15
  Q 353.85 371.14 353.33 370.88
  Q 352.46 370.45 352.42 371.42
  Q 352.07 379.76 352.44 388.01
  Q 352.72 394.20 351.25 397.78
  Q 349.06 403.11 343.31 408.81
  Q 336.05 416.01 328.25 424.03
  Q 319.83 426.76 308.19 423.42
  Q 310.36 421.78 312.94 421.14
  Q 317.15 420.10 317.90 419.77
  Q 323.27 417.46 325.39 415.37
  C 331.46 409.35 338.07 404.97 336.30 395.04
  C 335.78 392.08 335.41 390.41 333.22 388.54
  C 327.70 383.81 323.41 382.75 316.97 380.40
  C 308.12 377.17 299.70 380.43 291.52 381.26
  Q 285.37 381.87 282.62 382.77
  Q 271.21 386.51 263.51 395.45
  Q 252.45 394.97 241.75 395.30
  Q 239.58 395.36 238.37 393.32
  C 235.58 386.43 234.12 378.58 232.63 372.30
  Q 231.54 367.69 230.93 363.27
  Q 229.84 355.96 230.31 349.35
  Q 233.12 333.22 246.57 323.82
  Q 262.83 313.86 281.83 311.12
  C 287.52 310.30 293.00 311.48 298.69 312.40
  C 306.56 313.66 314.41 316.94 322.06 319.69
  Z
  M 265.33 329.25
  C 261.36 332.33 256.41 339.06 257.78 344.49
  C 260.94 357.03 275.16 360.11 285.62 355.58
  C 294.90 351.56 293.37 336.20 290.73 328.53
  C 289.79 325.82 289.36 324.62 286.12 324.43
  C 279.09 324.04 270.86 324.95 265.33 329.25
  Z"
/>
<path d="
  M 254.46 420.99
  C 249.67 416.84 247.15 410.40 244.20 405.01
  Q 243.70 404.35 244.09 403.89
  Q 244.42 403.51 244.91 403.58
  Q 250.27 404.34 255.59 403.37
  A 1.00 1.00 0.0 0 1 256.54 405.00
  C 253.41 408.74 254.51 416.14 254.46 420.99
  Z"
/>
</g>
<g fill="#ab2d4c">
<path d="
  M 186.91 440.90
  Q 188.13 447.14 194.32 449.05
  Q 194.81 449.20 195.28 449.01
  Q 200.58 446.95 206.75 446.98
  Q 226.89 447.08 258.50 446.82
  Q 266.78 446.75 272.06 444.06
  C 276.43 447.23 280.89 448.90 284.20 453.68
  Q 284.57 454.20 283.94 454.34
  C 281.25 454.92 279.26 455.18 276.88 456.69
  Q 268.56 461.97 259.66 466.14
  Q 251.77 469.85 248.37 472.20
  Q 237.99 479.39 230.29 489.50
  C 227.68 492.93 226.98 496.19 226.69 500.32
  A 1.72 1.72 0.0 0 1 224.48 501.84
  C 220.44 500.62 216.33 489.20 215.86 486.92
  C 214.38 479.70 212.60 472.07 207.42 468.82
  C 206.15 468.02 204.62 469.00 203.54 470.05
  Q 199.95 473.52 196.51 473.66
  Q 172.08 474.62 148.09 479.32
  Q 147.53 479.43 147.08 479.07
  C 143.90 476.48 143.69 468.24 143.81 465.74
  Q 144.20 458.35 145.92 451.51
  L 146.14 452.90
  Q 146.22 453.40 146.58 453.04
  Q 149.10 450.51 150.16 447.11
  Q 150.31 446.60 150.75 446.28
  Q 152.50 445.03 154.38 444.04
  Q 154.90 443.76 157.25 443.15
  C 158.78 442.75 159.58 441.73 160.95 441.25
  Q 173.93 436.69 186.91 440.90
  Z"
/>
<path d="
  M 436.20 470.84
  Q 446.43 471.13 456.21 477.28
  Q 464.45 482.46 470.53 487.45
  C 474.46 490.68 479.92 494.65 485.01 492.29
  C 489.16 490.36 492.94 487.76 495.90 484.13
  Q 494.91 486.56 496.60 487.88
  Q 500.40 490.84 502.81 493.11
  Q 505.03 495.19 507.40 496.57
  Q 509.53 497.80 511.54 499.20
  Q 513.75 500.75 515.79 501.54
  Q 524.73 505.04 533.91 507.89
  C 539.45 509.61 543.22 512.12 547.55 515.51
  Q 548.47 516.22 550.23 518.51
  Q 551.62 520.32 553.51 521.04
  Q 553.71 523.00 552.99 524.83
  Q 552.79 525.34 552.25 525.41
  Q 547.66 526.07 543.25 525.48
  Q 512.01 521.30 499.45 520.07
  C 495.57 519.69 488.92 519.83 485.39 521.68
  C 481.73 523.60 477.88 528.94 481.04 532.96
  Q 491.55 546.37 501.56 560.16
  Q 502.00 560.76 501.25 560.85
  C 496.41 561.44 491.31 559.87 487.48 559.46
  C 478.58 558.51 469.35 556.84 461.90 552.03
  Q 461.43 551.74 461.71 551.26
  C 468.30 539.80 471.12 526.93 466.95 514.27
  Q 463.03 502.38 454.31 493.44
  Q 444.22 483.11 433.99 472.92
  Q 433.62 472.55 433.84 472.08
  Q 434.29 471.07 436.20 470.84
  Z"
/>
</g>
<g fill="#5d2587">
<path d="
  M 181.43 341.90
  Q 183.99 346.70 187.13 352.28
  C 190.21 357.75 194.78 361.57 199.41 365.60
  Q 199.79 365.94 199.63 366.42
  Q 197.84 371.63 196.13 376.74
  Q 195.57 378.42 195.21 381.36
  Q 194.91 383.85 194.08 385.99
  Q 194.10 384.30 192.76 384.26
  C 191.77 384.22 190.46 384.76 189.51 385.39
  Q 181.30 390.81 175.38 391.89
  C 169.52 392.96 163.51 394.92 157.95 395.17
  Q 135.92 396.19 116.67 385.21
  C 114.87 384.19 113.89 382.28 110.98 382.62
  Q 110.31 382.69 110.31 383.37
  L 110.31 384.14
  Q 110.31 384.65 110.81 384.73
  Q 111.56 384.85 111.70 385.99
  Q 103.38 380.18 97.05 371.48
  A 1.73 1.73 0.0 0 1 97.70 368.91
  Q 98.93 368.31 101.01 368.72
  C 105.81 369.67 110.63 370.90 115.41 370.68
  Q 127.98 370.12 139.50 364.80
  C 148.66 360.58 164.50 348.03 144.86 341.08
  Q 135.54 337.78 126.62 333.54
  C 117.58 329.24 108.24 322.91 99.25 317.27
  C 95.70 315.04 97.70 313.12 98.87 310.53
  Q 101.02 305.78 103.74 300.86
  Q 107.04 303.97 110.48 306.96
  Q 113.43 309.52 117.80 312.31
  C 122.97 315.61 127.50 318.91 133.04 322.56
  Q 137.36 325.41 145.15 330.84
  Q 147.16 332.25 153.55 335.56
  Q 154.57 336.09 158.11 337.17
  Q 160.39 337.86 162.93 339.43
  Q 165.72 341.16 170.11 340.99
  A 1.86 1.80 -30.9 0 1 171.06 341.21
  Q 177.89 344.89 181.43 341.90
  Z"
/>
<path d="
  M 230.93 363.27
  Q 231.54 367.69 232.63 372.30
  C 234.12 378.58 235.58 386.43 238.37 393.32
  C 237.55 396.21 233.53 395.99 231.42 397.68
  A 1.09 1.07 69.1 0 0 231.02 398.60
  C 231.25 401.40 232.84 403.11 235.74 403.29
  Q 237.58 403.41 238.98 403.41
  Q 230.90 413.78 218.79 415.49
  Q 216.37 415.84 214.24 414.77
  Q 209.55 412.42 205.14 408.08
  L 206.21 403.30
  Q 210.80 387.17 216.18 370.00
  Q 217.59 365.50 215.21 360.33
  Q 219.47 362.14 224.02 362.90
  C 226.02 363.24 228.58 362.98 230.93 363.27
  Z"
/>
<path d="
  M 489.97 382.67
  Q 493.52 392.16 497.18 402.07
  Q 498.60 405.90 498.86 409.66
  Q 499.46 418.11 499.11 425.84
  L 498.74 429.51
  Q 489.84 426.84 481.25 428.36
  Q 479.51 428.67 479.60 430.44
  Q 471.36 429.70 463.02 431.64
  Q 458.75 432.64 458.76 436.50
  A 2.01 2.01 0.0 0 1 456.90 438.50
  C 450.15 439.02 443.61 439.33 436.99 437.33
  C 429.50 435.07 420.12 436.12 414.25 435.59
  C 412.18 435.40 409.55 434.15 407.02 433.97
  Q 401.77 433.60 396.51 433.16
  C 394.96 433.03 394.04 432.12 393.22 430.96
  Q 388.87 423.34 385.65 411.54
  C 383.03 401.96 381.08 391.83 377.18 382.94
  Q 372.53 372.31 366.93 362.00
  C 369.24 361.71 370.52 363.56 371.92 364.93
  Q 372.98 365.95 374.33 366.75
  C 378.68 369.30 382.96 372.21 387.63 374.13
  C 389.05 374.71 389.59 375.97 390.86 376.61
  Q 393.66 378.02 396.69 378.90
  Q 400.44 380.00 402.60 380.90
  Q 409.75 383.87 417.28 385.64
  Q 417.38 385.66 421.18 386.79
  C 423.97 387.61 426.57 387.14 429.20 387.91
  C 431.95 388.72 434.42 389.54 437.34 389.66
  Q 458.12 390.53 465.00 389.61
  Q 472.14 388.66 479.14 386.94
  Q 485.94 385.27 489.97 382.67
  Z"
/>
<path d="
  M 510.51 385.19
  Q 514.22 391.68 519.85 394.61
  Q 523.65 396.59 525.98 398.17
  Q 526.37 398.44 526.58 398.87
  Q 527.04 399.85 528.23 399.89
  Q 528.69 399.91 529.07 400.16
  Q 531.86 402.03 534.62 403.98
  Q 536.52 405.33 539.32 406.29
  C 541.80 407.14 544.11 408.54 546.44 409.23
  C 553.40 411.29 559.96 412.24 567.25 410.39
  Q 574.44 408.58 581.70 407.19
  C 583.51 406.85 585.61 405.94 587.73 405.45
  Q 591.53 419.52 592.46 426.27
  Q 593.07 430.70 593.69 433.80
  C 594.98 440.32 595.62 445.99 596.85 452.01
  A 2.46 2.45 84.1 0 1 594.46 454.96
  L 558.74 455.11
  Q 557.23 455.12 556.18 456.19
  L 550.81 461.63
  Q 550.43 462.01 550.42 462.55
  L 550.30 467.26
  Q 534.06 459.86 519.80 449.96
  Q 518.66 449.16 517.24 447.14
  Q 516.59 446.21 515.19 446.81
  L 515.15 425.21
  Q 515.25 416.12 515.03 406.99
  Q 514.83 398.52 510.18 390.79
  Q 508.37 387.79 510.51 385.19
  Z"
/>
</g>
<g fill="#1e1572">
<path d="
  M 318.82 207.79
  Q 328.05 208.15 337.63 208.44
  C 341.26 208.55 342.84 210.62 345.13 213.12
  C 346.43 214.54 347.24 215.69 346.16 217.62
  C 342.02 225.01 334.25 224.36 325.39 224.22
  Q 320.40 216.59 318.82 207.79
  Z"
/>
<path d="
  M 243.89 224.52
  L 243.69 245.09
  Q 231.73 237.57 218.16 233.44
  A 1.27 1.27 0.0 0 0 216.61 235.14
  C 217.72 237.82 218.66 240.06 218.92 243.07
  C 219.65 251.69 224.09 257.73 226.69 264.00
  C 228.22 267.68 228.08 271.34 225.16 274.44
  Q 220.96 278.88 215.67 281.87
  Q 212.27 283.79 211.41 285.36
  C 208.83 290.12 217.79 297.74 222.89 302.87
  Q 226.04 306.05 228.43 307.81
  C 230.78 309.56 233.28 308.24 235.52 309.99
  Q 240.54 313.92 241.79 320.78
  Q 242.31 323.65 246.57 323.82
  Q 233.12 333.22 230.31 349.35
  Q 230.23 341.53 230.29 333.79
  C 230.37 324.72 227.35 325.04 219.15 324.93
  Q 207.84 324.77 196.65 324.90
  Q 194.39 324.92 194.53 327.17
  C 194.60 328.29 194.65 329.94 195.17 331.01
  Q 198.19 337.27 200.51 344.15
  Q 198.34 342.69 197.06 340.27
  A 1.54 1.52 -1.7 0 0 196.37 339.63
  Q 192.16 337.67 187.50 337.79
  Q 183.17 337.90 179.91 335.05
  A 0.41 0.41 0.0 0 0 179.30 335.57
  Q 179.55 335.95 179.12 336.55
  C 178.66 333.92 178.70 331.48 177.82 328.88
  C 176.20 324.08 174.80 316.80 178.08 312.52
  Q 181.05 308.64 186.24 308.64
  Q 195.38 308.64 205.08 308.54
  A 0.74 0.74 0.0 0 0 205.60 307.28
  Q 198.69 300.29 191.39 293.12
  C 188.23 290.02 190.02 287.77 192.74 285.22
  Q 197.29 280.94 200.47 275.59
  C 202.39 272.38 204.21 270.53 206.85 268.28
  A 3.25 3.25 0.0 0 0 207.83 264.78
  Q 205.85 258.81 203.89 252.74
  Q 203.27 250.81 203.02 247.39
  C 202.74 243.55 200.96 240.18 200.55 236.84
  Q 199.37 227.17 200.51 217.54
  C 200.93 213.96 203.13 210.94 205.96 209.17
  C 209.05 207.25 214.52 210.88 217.17 212.66
  C 224.21 217.40 230.75 220.90 238.98 224.49
  Q 241.58 225.63 243.89 224.52
  Z"
/>
<path d="
  M 465.65 228.96
  C 463.94 229.13 462.77 229.12 461.32 230.19
  C 459.70 231.39 455.46 232.98 455.28 235.18
  Q 455.24 235.65 455.52 236.03
  Q 459.05 240.87 457.97 248.21
  Q 449.11 244.24 438.83 240.37
  C 435.22 239.01 429.85 235.32 432.11 230.68
  C 437.40 219.85 445.97 226.66 454.61 227.35
  A 1.49 1.44 68.2 0 1 455.50 227.75
  L 457.25 229.44
  A 0.99 0.99 0.0 0 0 458.26 229.66
  Q 461.90 228.33 465.65 228.96
  Z"
/>
<path d="
  M 337.48 329.79
  C 334.66 326.55 330.31 324.53 327.32 322.54
  Q 324.57 320.71 322.06 319.69
  Q 322.34 317.44 322.42 315.21
  Q 322.51 312.93 323.18 310.82
  Q 324.82 305.69 325.55 300.31
  C 326.36 294.35 329.69 288.32 331.86 282.70
  Q 333.69 277.97 336.07 274.37
  C 338.34 270.94 345.88 258.85 350.17 259.67
  Q 351.15 259.85 352.36 260.94
  C 355.06 263.38 358.25 266.46 357.60 270.24
  C 356.87 274.54 352.16 280.17 350.19 283.35
  Q 342.94 295.05 340.88 308.73
  C 340.37 312.13 338.93 316.05 338.76 318.74
  Q 338.25 326.74 337.48 329.79
  Z"
/>
<path d="
  M 521.77 373.69
  Q 519.84 369.43 513.96 371.20
  Q 506.43 373.48 500.95 373.04
  Q 510.45 364.08 515.56 355.57
  Q 523.11 343.00 528.76 329.30
  A 1.36 1.36 0.0 0 0 527.38 327.43
  C 522.15 327.88 516.31 325.69 512.70 324.89
  C 498.12 321.67 482.54 312.85 470.75 305.46
  C 462.66 300.40 461.10 295.05 468.59 288.33
  C 472.36 284.96 475.48 289.54 478.67 291.30
  C 489.26 297.14 500.12 303.31 511.72 306.83
  Q 521.29 309.73 527.02 310.89
  C 530.90 311.68 535.62 310.52 540.46 312.87
  Q 541.96 313.60 544.19 313.82
  C 547.75 314.17 550.13 317.49 552.25 319.93
  A 2.98 2.98 0.0 0 1 552.26 323.84
  C 550.50 325.89 549.00 327.66 547.76 330.16
  Q 542.65 340.47 537.52 350.75
  Q 530.37 365.09 521.77 373.69
  Z"
/>
</g>
<g fill="#59013f">
<path d="
  M 206.21 403.30
  L 205.14 408.08
  Q 201.65 419.75 203.22 430.18
  Q 203.30 430.73 203.86 430.73
  L 261.29 430.54
  Q 265.27 433.73 268.65 439.37
  C 269.70 441.13 271.00 442.43 272.06 444.06
  Q 266.78 446.75 258.50 446.82
  Q 226.89 447.08 206.75 446.98
  Q 200.58 446.95 195.28 449.01
  Q 194.81 449.20 194.32 449.05
  Q 188.13 447.14 186.91 440.90
  Q 185.97 423.46 188.35 407.45
  Q 189.90 405.95 193.53 403.90
  Q 201.98 399.14 206.21 403.30
  Z"
/>
<path d="
  M 515.15 425.21
  L 515.19 446.81
  L 513.30 456.94
  Q 510.78 465.47 506.04 472.71
  C 503.34 476.82 499.47 480.43 495.90 484.13
  C 492.94 487.76 489.16 490.36 485.01 492.29
  C 479.92 494.65 474.46 490.68 470.53 487.45
  Q 464.45 482.46 456.21 477.28
  Q 446.43 471.13 436.20 470.84
  Q 437.63 469.50 435.16 467.98
  C 431.39 465.66 427.79 461.31 424.58 458.19
  C 422.21 455.88 420.70 453.54 419.00 450.82
  Q 421.68 451.40 424.37 451.88
  C 430.04 452.89 437.53 457.02 443.00 453.17
  A 2.36 2.35 38.3 0 1 445.27 452.91
  C 456.96 457.77 467.29 465.53 477.84 472.88
  C 482.35 476.02 485.24 473.58 488.09 469.64
  Q 495.76 459.02 498.74 446.25
  Q 499.54 442.83 498.74 429.51
  L 499.11 425.84
  L 513.64 430.44
  A 1.02 1.02 0.0 0 0 514.96 429.51
  L 515.15 425.21
  Z"
/>
</g>
<g fill="#714444">
<path d="
  M 366.66 408.31
  Q 357.32 409.07 347.82 408.90
  C 346.61 408.88 345.00 409.39 344.12 410.27
  Q 339.65 414.76 337.17 420.60
  Q 336.23 422.83 334.85 423.51
  Q 332.17 424.84 328.25 424.03
  Q 336.05 416.01 343.31 408.81
  Q 349.06 403.11 351.25 397.78
  Q 352.72 394.20 352.44 388.01
  Q 352.07 379.76 352.42 371.42
  Q 352.46 370.45 353.33 370.88
  Q 353.85 371.14 354.33 372.15
  Q 362.14 388.61 366.57 406.28
  Q 366.72 406.88 366.66 408.31
  Z"
/>
<path d="
  M 381.60 442.28
  L 395.77 456.38
  Q 396.10 456.71 395.79 457.06
  C 392.36 460.99 387.11 460.77 382.55 461.79
  C 366.54 465.34 349.08 461.96 333.45 457.98
  C 318.33 454.14 303.48 446.39 290.61 437.66
  Q 288.28 436.08 286.69 433.86
  A 0.68 0.68 0.0 0 1 287.34 432.79
  Q 296.33 434.10 305.51 433.98
  Q 308.25 434.37 312.87 434.09
  Q 325.55 433.32 338.25 433.38
  C 343.25 433.40 345.85 424.52 347.40 420.44
  C 349.90 413.85 361.26 417.52 366.99 418.74
  C 370.76 419.54 371.23 421.27 371.24 424.99
  Q 371.24 429.88 371.24 434.75
  C 371.23 438.37 373.13 440.28 376.57 441.36
  Q 379.51 442.28 381.60 442.28
  Z"
/>
<path d="
  M 250.15 527.39
  C 244.60 524.22 240.87 514.59 241.88 508.41
  C 243.05 501.27 244.12 494.48 250.93 490.49
  Q 251.36 490.25 251.84 490.32
  Q 253.23 490.52 254.11 491.38
  Q 262.79 499.84 271.31 508.44
  C 274.50 511.67 273.65 518.39 273.73 524.01
  Q 273.82 530.75 267.25 531.03
  C 261.84 531.27 254.43 529.84 250.15 527.39
  Z"
/>
<path d="
  M 437.82 522.26
  C 441.03 520.17 443.45 517.23 446.57 514.91
  A 1.93 1.93 0.0 0 1 449.38 515.48
  Q 456.24 527.04 449.87 537.39
  C 446.31 543.19 436.08 546.11 429.80 546.97
  A 1.95 1.90 -35.5 0 1 428.70 546.80
  Q 421.83 543.51 419.95 535.95
  A 1.11 1.11 0.0 0 1 420.19 534.97
  Q 422.28 532.59 424.85 530.86
  Q 431.30 526.51 437.82 522.26
  Z"
/>
</g>
<g fill="#1e1d22">
<path d="
  M 260.10 222.70
  Q 260.09 220.78 260.49 219.26
  C 262.44 211.88 263.87 203.22 265.42 196.95
  C 268.26 185.39 271.19 173.31 276.83 162.65
  A 2.08 2.08 0.0 0 1 279.96 161.99
  C 282.65 164.12 284.06 175.38 285.50 179.04
  Q 290.34 191.30 297.12 202.61
  C 297.99 204.06 299.33 205.22 300.41 206.62
  A 0.70 0.70 0.0 0 1 300.40 207.48
  Q 299.38 208.73 297.74 209.47
  C 291.08 212.47 284.99 214.76 278.26 217.88
  Q 270.28 221.59 261.83 224.00
  A 1.36 1.35 -7.9 0 1 260.10 222.70
  Z"
/>
<path d="
  M 530.91 220.62
  Q 531.65 232.01 531.66 243.42
  C 531.66 255.57 529.05 266.78 525.31 277.97
  A 1.73 1.72 -63.8 0 1 522.72 278.86
  Q 520.06 277.08 518.45 275.30
  Q 513.12 269.45 507.17 264.22
  C 505.41 262.67 503.06 261.91 501.47 260.54
  C 498.09 257.62 492.92 251.74 487.42 248.39
  Q 483.99 246.30 480.97 243.05
  Q 479.70 241.68 481.45 241.03
  C 490.63 237.61 497.19 232.70 504.68 225.19
  C 512.01 217.84 519.03 210.31 526.54 203.11
  A 0.78 0.77 -43.7 0 1 527.63 203.13
  C 530.13 205.73 530.88 220.15 530.91 220.62
  Z"
/>
<path d="
  M 400.94 503.89
  C 401.62 506.80 403.85 507.43 403.92 511.25
  Q 404.08 520.18 403.98 529.11
  Q 403.97 529.63 403.55 529.93
  Q 400.96 531.76 398.32 532.60
  Q 388.56 535.69 381.44 538.29
  C 379.51 539.00 377.94 539.25 375.94 539.48
  Q 375.42 539.54 375.02 539.88
  Q 372.65 541.87 370.00 541.95
  Q 353.75 542.44 331.45 541.78
  C 329.14 541.71 327.75 540.15 325.63 539.91
  Q 318.65 539.13 314.73 537.02
  Q 306.55 532.62 298.13 528.69
  C 293.53 526.55 292.03 523.27 290.41 518.71
  Q 288.79 514.19 291.74 510.99
  A 1.55 1.53 -21.2 0 0 292.14 510.10
  C 292.51 506.66 292.62 504.48 294.12 501.00
  C 296.21 496.16 295.02 490.97 295.14 484.87
  A 0.74 0.62 -63.0 0 0 295.07 484.56
  L 287.74 469.76
  A 0.75 0.75 0.0 0 1 288.33 468.67
  C 292.69 468.21 296.66 465.81 300.57 465.81
  Q 304.08 465.80 307.44 466.92
  C 319.59 470.97 332.53 475.90 344.60 477.73
  Q 362.85 480.50 381.35 479.05
  Q 383.89 478.85 388.55 477.69
  Q 391.04 477.07 393.59 476.72
  C 398.86 476.01 402.62 471.86 408.22 474.98
  Q 411.21 476.65 414.58 477.26
  Q 417.11 477.71 418.27 478.77
  C 425.60 485.48 413.15 493.43 408.11 496.55
  Q 404.30 498.92 401.27 502.49
  A 1.60 1.59 -32.0 0 0 400.94 503.89
  Z"
/>
<path d="
  M 272.27 477.73
  L 279.05 490.41
  A 1.98 1.98 0.0 0 1 278.78 492.66
  Q 277.71 493.85 276.43 492.32
  Q 273.27 488.52 270.09 484.74
  C 267.71 481.91 268.25 478.94 271.59 477.49
  Q 272.04 477.30 272.27 477.73
  Z"
/>
<path d="
  M 423.10 504.83
  C 426.35 501.91 429.78 497.36 433.79 495.68
  A 0.98 0.98 0.0 0 1 434.82 495.85
  L 438.75 499.33
  A 0.90 0.89 43.7 0 1 438.78 500.64
  L 430.89 508.40
  A 0.77 0.73 -73.2 0 1 430.54 508.60
  Q 425.18 509.91 421.99 514.48
  A 1.24 1.24 0.0 0 1 419.74 513.92
  Q 419.06 508.47 423.10 504.83
  Z"
/>
<path d="
  M 300.64 548.76
  Q 314.85 555.14 329.25 558.92
  A 1.18 1.18 0.0 0 1 329.56 561.08
  Q 325.29 563.66 321.50 566.24
  C 317.85 568.72 314.40 569.59 310.35 570.88
  C 305.73 572.36 299.29 566.88 296.53 563.74
  C 293.74 560.56 288.01 549.24 289.96 545.02
  A 0.71 0.70 18.9 0 1 290.76 544.63
  C 294.39 545.52 297.62 547.40 300.64 548.76
  Z"
/>
<path d="
  M 407.02 549.56
  Q 405.61 556.52 403.03 563.28
  C 401.09 568.36 396.66 570.64 391.43 572.61
  C 377.82 577.74 362.63 574.12 357.96 558.99
  A 0.48 0.48 0.0 0 1 358.41 558.37
  C 365.13 558.28 372.35 558.86 378.83 556.98
  Q 392.17 553.12 404.14 547.32
  A 2.04 2.03 82.8 0 1 407.02 549.56
  Z"
/>
</g>
<g fill="#8d2699">
<path d="
  M 194.08 385.99
  Q 190.41 395.93 188.35 407.45
  Q 185.97 423.46 186.91 440.90
  Q 173.93 436.69 160.95 441.25
  C 159.58 441.73 158.78 442.75 157.25 443.15
  Q 154.90 443.76 154.38 444.04
  Q 152.50 445.03 150.75 446.28
  Q 150.31 446.60 150.16 447.11
  Q 149.10 450.51 146.58 453.04
  Q 146.22 453.40 146.14 452.90
  L 145.92 451.51
  Q 148.82 438.59 154.48 426.76
  Q 156.86 421.79 156.94 418.14
  C 157.05 412.83 146.41 406.43 142.13 404.24
  C 130.21 398.15 121.85 393.62 111.70 385.99
  Q 111.56 384.85 110.81 384.73
  Q 110.31 384.65 110.31 384.14
  L 110.31 383.37
  Q 110.31 382.69 110.98 382.62
  C 113.89 382.28 114.87 384.19 116.67 385.21
  Q 135.92 396.19 157.95 395.17
  C 163.51 394.92 169.52 392.96 175.38 391.89
  Q 181.30 390.81 189.51 385.39
  C 190.46 384.76 191.77 384.22 192.76 384.26
  Q 194.10 384.30 194.08 385.99
  Z"
/>
<path d="
  M 238.98 403.41
  L 244.20 405.01
  C 247.15 410.40 249.67 416.84 254.46 420.99
  L 257.14 424.92
  Q 257.58 427.62 261.29 430.54
  L 203.86 430.73
  Q 203.30 430.73 203.22 430.18
  Q 201.65 419.75 205.14 408.08
  Q 209.55 412.42 214.24 414.77
  Q 216.37 415.84 218.79 415.49
  Q 230.90 413.78 238.98 403.41
  Z"
/>
<path d="
  M 498.74 429.51
  Q 499.54 442.83 498.74 446.25
  Q 495.76 459.02 488.09 469.64
  C 485.24 473.58 482.35 476.02 477.84 472.88
  C 467.29 465.53 456.96 457.77 445.27 452.91
  A 2.36 2.35 38.3 0 0 443.00 453.17
  C 437.53 457.02 430.04 452.89 424.37 451.88
  Q 421.68 451.40 419.00 450.82
  L 403.74 442.87
  Q 403.27 441.64 404.97 441.48
  Q 405.67 441.42 406.57 441.77
  Q 411.91 443.83 413.49 443.92
  Q 428.29 444.80 443.01 446.50
  C 448.55 447.14 454.13 447.14 459.00 446.20
  C 463.67 445.30 464.96 439.28 469.71 439.05
  C 474.41 438.81 479.69 440.40 481.99 434.90
  Q 482.19 434.42 481.91 433.98
  L 479.60 430.44
  Q 479.51 428.67 481.25 428.36
  Q 489.84 426.84 498.74 429.51
  Z"
/>
<path d="
  M 550.30 467.26
  L 550.39 479.95
  Q 531.03 474.95 517.28 458.22
  Q 515.92 456.56 513.30 456.94
  L 515.19 446.81
  Q 516.59 446.21 517.24 447.14
  Q 518.66 449.16 519.80 449.96
  Q 534.06 459.86 550.30 467.26
  Z"
/>
<path d="
  M 224.28 518.29
  Q 226.95 518.45 226.37 519.52
  L 224.28 518.29
  Z"
/>
<path d="
  M 270.48 547.68
  Q 273.04 547.87 273.02 550.17
  Q 272.27 548.88 270.48 547.68
  Z"
/>
</g>
<path fill="#362c52" d="
  M 238.37 393.32
  Q 239.58 395.36 241.75 395.30
  Q 252.45 394.97 263.51 395.45
  Q 266.21 400.17 264.86 404.02
  Q 262.85 409.74 262.78 415.08
  Q 262.78 415.59 263.18 415.92
  C 267.34 419.33 272.98 419.38 278.38 419.73
  Q 282.86 420.01 287.08 420.74
  Q 297.82 422.58 308.19 423.42
  Q 319.83 426.76 328.25 424.03
  Q 332.17 424.84 334.85 423.51
  Q 336.23 422.83 337.17 420.60
  Q 339.65 414.76 344.12 410.27
  C 345.00 409.39 346.61 408.88 347.82 408.90
  Q 357.32 409.07 366.66 408.31
  Q 368.59 408.63 370.69 408.89
  C 378.94 409.94 380.23 426.36 379.64 432.35
  A 0.75 0.75 0.0 0 0 380.34 433.17
  Q 386.07 433.61 391.63 433.12
  Q 393.34 432.96 393.22 430.96
  C 394.04 432.12 394.96 433.03 396.51 433.16
  Q 401.77 433.60 407.02 433.97
  C 409.55 434.15 412.18 435.40 414.25 435.59
  C 420.12 436.12 429.50 435.07 436.99 437.33
  C 443.61 439.33 450.15 439.02 456.90 438.50
  A 2.01 2.01 0.0 0 0 458.76 436.50
  Q 458.75 432.64 463.02 431.64
  Q 471.36 429.70 479.60 430.44
  L 481.91 433.98
  Q 482.19 434.42 481.99 434.90
  C 479.69 440.40 474.41 438.81 469.71 439.05
  C 464.96 439.28 463.67 445.30 459.00 446.20
  C 454.13 447.14 448.55 447.14 443.01 446.50
  Q 428.29 444.80 413.49 443.92
  Q 411.91 443.83 406.57 441.77
  Q 405.67 441.42 404.97 441.48
  Q 403.27 441.64 403.74 442.87
  Q 392.44 440.18 381.60 442.28
  Q 379.51 442.28 376.57 441.36
  C 373.13 440.28 371.23 438.37 371.24 434.75
  Q 371.24 429.88 371.24 424.99
  C 371.23 421.27 370.76 419.54 366.99 418.74
  C 361.26 417.52 349.90 413.85 347.40 420.44
  C 345.85 424.52 343.25 433.40 338.25 433.38
  Q 325.55 433.32 312.87 434.09
  Q 308.25 434.37 305.51 433.98
  L 308.45 434.02
  Q 309.25 434.03 308.62 433.54
  Q 307.24 432.46 305.80 432.19
  Q 288.82 429.07 270.33 427.78
  Q 268.30 427.64 265.88 426.60
  Q 261.55 424.74 257.14 424.92
  L 254.46 420.99
  C 254.51 416.14 253.41 408.74 256.54 405.00
  A 1.00 1.00 0.0 0 0 255.59 403.37
  Q 250.27 404.34 244.91 403.58
  Q 244.42 403.51 244.09 403.89
  Q 243.70 404.35 244.20 405.01
  L 238.98 403.41
  Q 237.58 403.41 235.74 403.29
  C 232.84 403.11 231.25 401.40 231.02 398.60
  A 1.09 1.07 69.1 0 1 231.42 397.68
  C 233.53 395.99 237.55 396.21 238.37 393.32
  Z"
/>
<path fill="#aa2d7c" d="
  M 550.39 479.95
  C 550.51 482.33 550.39 484.76 550.65 487.01
  Q 552.06 499.00 553.28 511.00
  Q 553.89 516.98 553.51 521.04
  Q 551.62 520.32 550.23 518.51
  Q 548.47 516.22 547.55 515.51
  C 543.22 512.12 539.45 509.61 533.91 507.89
  Q 524.73 505.04 515.79 501.54
  Q 513.75 500.75 511.54 499.20
  Q 509.53 497.80 507.40 496.57
  Q 505.03 495.19 502.81 493.11
  Q 500.40 490.84 496.60 487.88
  Q 494.91 486.56 495.90 484.13
  C 499.47 480.43 503.34 476.82 506.04 472.71
  Q 510.78 465.47 513.30 456.94
  Q 515.92 456.56 517.28 458.22
  Q 531.03 474.95 550.39 479.95
  Z"
/>
<g fill="#07004e">
<path d="
  M 200.51 344.15
  Q 206.94 352.83 215.21 360.33
  Q 217.59 365.50 216.18 370.00
  Q 210.80 387.17 206.21 403.30
  Q 201.98 399.14 193.53 403.90
  Q 189.90 405.95 188.35 407.45
  Q 190.41 395.93 194.08 385.99
  Q 194.91 383.85 195.21 381.36
  Q 195.57 378.42 196.13 376.74
  Q 197.84 371.63 199.63 366.42
  Q 199.79 365.94 199.41 365.60
  C 194.78 361.57 190.21 357.75 187.13 352.28
  Q 183.99 346.70 181.43 341.90
  L 179.12 336.55
  Q 179.55 335.95 179.30 335.57
  A 0.41 0.41 0.0 0 1 179.91 335.05
  Q 183.17 337.90 187.50 337.79
  Q 192.16 337.67 196.37 339.63
  A 1.54 1.52 -1.7 0 1 197.06 340.27
  Q 198.34 342.69 200.51 344.15
  Z"
/>
<path d="
  M 521.77 373.69
  L 510.51 385.19
  Q 508.37 387.79 510.18 390.79
  Q 514.83 398.52 515.03 406.99
  Q 515.25 416.12 515.15 425.21
  L 514.96 429.51
  A 1.02 1.02 0.0 0 1 513.64 430.44
  L 499.11 425.84
  Q 499.46 418.11 498.86 409.66
  Q 498.60 405.90 497.18 402.07
  Q 493.52 392.16 489.97 382.67
  Q 494.48 374.80 500.95 373.04
  Q 506.43 373.48 513.96 371.20
  Q 519.84 369.43 521.77 373.69
  Z"
/>
<path d="
  M 308.19 423.42
  Q 297.82 422.58 287.08 420.74
  Q 282.86 420.01 278.38 419.73
  C 272.98 419.38 267.34 419.33 263.18 415.92
  Q 262.78 415.59 262.78 415.08
  Q 262.85 409.74 264.86 404.02
  Q 266.21 400.17 263.51 395.45
  Q 271.21 386.51 282.62 382.77
  Q 285.37 381.87 291.52 381.26
  C 299.70 380.43 308.12 377.17 316.97 380.40
  C 323.41 382.75 327.70 383.81 333.22 388.54
  C 335.41 390.41 335.78 392.08 336.30 395.04
  C 338.07 404.97 331.46 409.35 325.39 415.37
  Q 323.27 417.46 317.90 419.77
  Q 317.15 420.10 312.94 421.14
  Q 310.36 421.78 308.19 423.42
  Z"
/>
</g>
</svg>
